<mxfile host="app.diagrams.net" agent="Mozilla/5.0 (Windows NT 10.0; Win64; x64) AppleWebKit/537.36 (KHTML, like Gecko) Chrome/130.0.0.0 Safari/537.36" version="24.8.2">
  <diagram name="Page-1" id="197159a0-c6a4-9194-75a8-e4174976684c">
    <mxGraphModel dx="4031" dy="2906" grid="0" gridSize="10" guides="1" tooltips="1" connect="1" arrows="1" fold="1" page="0" pageScale="1.5" pageWidth="980" pageHeight="690" background="none" math="0" shadow="0">
      <root>
        <mxCell id="0" style=";html=1;" />
        <mxCell id="1" style=";html=1;" parent="0" />
        <mxCell id="Kj9JKMHcZySDFW4jfRYG-222" style="edgeStyle=orthogonalEdgeStyle;rounded=0;orthogonalLoop=1;jettySize=auto;html=1;fontSize=36;" parent="1" source="Kj9JKMHcZySDFW4jfRYG-56" edge="1">
          <mxGeometry relative="1" as="geometry">
            <mxPoint x="2707.2636108398438" y="999.2637939453125" as="targetPoint" />
          </mxGeometry>
        </mxCell>
        <mxCell id="Kj9JKMHcZySDFW4jfRYG-228" style="edgeStyle=orthogonalEdgeStyle;rounded=0;orthogonalLoop=1;jettySize=auto;html=1;fontSize=36;" parent="1" source="Kj9JKMHcZySDFW4jfRYG-56" edge="1">
          <mxGeometry relative="1" as="geometry">
            <mxPoint x="2707.2636108398438" y="999.2637939453125" as="targetPoint" />
            <mxPoint x="3247" y="1177" as="sourcePoint" />
            <Array as="points">
              <mxPoint x="2707" y="1177" />
            </Array>
          </mxGeometry>
        </mxCell>
        <mxCell id="Kj9JKMHcZySDFW4jfRYG-223" style="edgeStyle=orthogonalEdgeStyle;rounded=0;orthogonalLoop=1;jettySize=auto;html=1;fontSize=36;" parent="1" source="Kj9JKMHcZySDFW4jfRYG-56" edge="1">
          <mxGeometry relative="1" as="geometry">
            <mxPoint x="3993.1896362304688" y="996.3009033203125" as="targetPoint" />
          </mxGeometry>
        </mxCell>
        <mxCell id="Kj9JKMHcZySDFW4jfRYG-173" value="" style="rounded=0;whiteSpace=wrap;html=1;fillColor=#ebebeb;opacity=30;strokeColor=none;" parent="1" vertex="1">
          <mxGeometry x="1352.69" y="1554" width="567.31" height="479" as="geometry" />
        </mxCell>
        <mxCell id="Kj9JKMHcZySDFW4jfRYG-153" value="" style="html=1;shadow=0;dashed=0;shape=mxgraph.bootstrap.checkbox2;labelPosition=right;verticalLabelPosition=middle;align=left;verticalAlign=middle;fillColor=#fad7ac;checked=0;spacing=5;checkedFill=#0085FC;checkedStroke=#ffffff;sketch=0;strokeColor=#b46504;opacity=30;" parent="1" vertex="1">
          <mxGeometry x="377" y="1257.5" width="139" height="86" as="geometry" />
        </mxCell>
        <mxCell id="1257a543d1cacc4b-13" style="edgeStyle=orthogonalEdgeStyle;rounded=0;html=1;startSize=10;endSize=10;jettySize=auto;orthogonalLoop=1;fontSize=14;endArrow=none;endFill=0;strokeColor=#808080;" parent="1" source="1257a543d1cacc4b-1" target="1257a543d1cacc4b-2" edge="1">
          <mxGeometry relative="1" as="geometry">
            <mxPoint x="1555" y="267" as="targetPoint" />
            <Array as="points">
              <mxPoint x="572" y="348" />
              <mxPoint x="1552" y="348" />
            </Array>
          </mxGeometry>
        </mxCell>
        <mxCell id="1257a543d1cacc4b-14" style="rounded=0;html=1;startSize=10;endSize=10;jettySize=auto;orthogonalLoop=1;fontSize=14;endArrow=none;endFill=0;strokeColor=#808080;entryX=0.195;entryY=0.232;entryDx=0;entryDy=0;entryPerimeter=0;" parent="1" source="1257a543d1cacc4b-7" target="1257a543d1cacc4b-9" edge="1">
          <mxGeometry relative="1" as="geometry" />
        </mxCell>
        <mxCell id="1257a543d1cacc4b-15" style="rounded=0;html=1;startSize=10;endSize=10;jettySize=auto;orthogonalLoop=1;fontSize=14;endArrow=none;endFill=0;strokeColor=#808080;exitX=0.763;exitY=0.306;exitDx=0;exitDy=0;exitPerimeter=0;" parent="1" source="1257a543d1cacc4b-9" target="1257a543d1cacc4b-8" edge="1">
          <mxGeometry relative="1" as="geometry" />
        </mxCell>
        <mxCell id="1257a543d1cacc4b-9" value="WAN" style="shadow=0;dashed=0;html=1;strokeColor=none;fillColor=#4495D1;labelPosition=center;verticalLabelPosition=middle;verticalAlign=middle;shape=mxgraph.veeam.2d.cloud;fontSize=14;align=center;" parent="1" vertex="1">
          <mxGeometry x="969.61" y="615.88" width="206.78" height="144.12" as="geometry" />
        </mxCell>
        <mxCell id="1257a543d1cacc4b-26" style="rounded=0;html=1;startSize=10;endSize=10;jettySize=auto;orthogonalLoop=1;fontSize=14;endArrow=none;endFill=0;strokeColor=#808080;" parent="1" source="1257a543d1cacc4b-24" target="1257a543d1cacc4b-9" edge="1">
          <mxGeometry relative="1" as="geometry" />
        </mxCell>
        <mxCell id="1257a543d1cacc4b-52" value="Cloud storage system" style="text;strokeColor=none;fillColor=none;html=1;fontSize=24;fontStyle=1;verticalAlign=middle;align=center;" parent="1" vertex="1">
          <mxGeometry x="370" y="120" width="1420" height="40" as="geometry" />
        </mxCell>
        <mxCell id="Kj9JKMHcZySDFW4jfRYG-15" value="" style="group" parent="1" vertex="1" connectable="0">
          <mxGeometry x="123" y="660" width="660" height="392" as="geometry" />
        </mxCell>
        <mxCell id="1257a543d1cacc4b-45" value="Production site 2" style="whiteSpace=wrap;html=1;fillColor=#dae8fc;fontSize=14;strokeColor=none;verticalAlign=bottom;" parent="Kj9JKMHcZySDFW4jfRYG-15" vertex="1">
          <mxGeometry width="660" height="260" as="geometry" />
        </mxCell>
        <mxCell id="1257a543d1cacc4b-31" style="edgeStyle=elbowEdgeStyle;rounded=0;html=1;startSize=10;endSize=10;jettySize=auto;orthogonalLoop=1;fontSize=14;endArrow=none;endFill=0;strokeColor=#808080;elbow=vertical;" parent="Kj9JKMHcZySDFW4jfRYG-15" source="1257a543d1cacc4b-21" target="1257a543d1cacc4b-22" edge="1">
          <mxGeometry relative="1" as="geometry" />
        </mxCell>
        <mxCell id="1257a543d1cacc4b-21" value="" style="shadow=0;dashed=0;html=1;strokeColor=none;fillColor=#4495D1;labelPosition=center;verticalLabelPosition=bottom;verticalAlign=top;shape=mxgraph.veeam.2d.backup_repository_2;fontSize=14;" parent="Kj9JKMHcZySDFW4jfRYG-15" vertex="1">
          <mxGeometry x="17" y="47" width="58" height="50" as="geometry" />
        </mxCell>
        <mxCell id="1257a543d1cacc4b-30" style="edgeStyle=elbowEdgeStyle;rounded=0;html=1;startSize=10;endSize=10;jettySize=auto;orthogonalLoop=1;fontSize=14;endArrow=none;endFill=0;strokeColor=#808080;elbow=vertical;" parent="Kj9JKMHcZySDFW4jfRYG-15" source="1257a543d1cacc4b-22" target="1257a543d1cacc4b-23" edge="1">
          <mxGeometry relative="1" as="geometry" />
        </mxCell>
        <mxCell id="1257a543d1cacc4b-22" value="Source ESX host" style="shadow=0;dashed=0;html=1;strokeColor=none;fillColor=#4495D1;labelPosition=center;verticalLabelPosition=top;verticalAlign=bottom;shape=mxgraph.veeam.2d.vmware_host;fontSize=14;align=center;" parent="Kj9JKMHcZySDFW4jfRYG-15" vertex="1">
          <mxGeometry x="290" y="47" width="124" height="120" as="geometry" />
        </mxCell>
        <mxCell id="1257a543d1cacc4b-27" style="rounded=0;html=1;startSize=10;endSize=10;jettySize=auto;orthogonalLoop=1;fontSize=14;endArrow=none;endFill=0;strokeColor=#808080;" parent="Kj9JKMHcZySDFW4jfRYG-15" source="1257a543d1cacc4b-23" target="1257a543d1cacc4b-9" edge="1">
          <mxGeometry relative="1" as="geometry" />
        </mxCell>
        <mxCell id="1257a543d1cacc4b-23" value="VMware&amp;nbsp;&lt;div&gt;backup&amp;nbsp;&lt;span&gt;proxy&lt;/span&gt;&lt;/div&gt;" style="shadow=0;dashed=0;html=1;strokeColor=none;fillColor=#4495D1;labelPosition=center;verticalLabelPosition=top;verticalAlign=bottom;shape=mxgraph.veeam.2d.proxy;fontSize=14;align=center;" parent="Kj9JKMHcZySDFW4jfRYG-15" vertex="1">
          <mxGeometry x="570" y="47" width="46" height="46" as="geometry" />
        </mxCell>
        <mxCell id="1257a543d1cacc4b-32" style="edgeStyle=orthogonalEdgeStyle;rounded=0;html=1;startSize=10;endSize=10;jettySize=auto;orthogonalLoop=1;fontSize=14;endArrow=none;endFill=0;strokeColor=#808080;" parent="Kj9JKMHcZySDFW4jfRYG-15" source="1257a543d1cacc4b-28" target="1257a543d1cacc4b-21" edge="1">
          <mxGeometry relative="1" as="geometry">
            <mxPoint x="60" y="200" as="targetPoint" />
            <Array as="points">
              <mxPoint x="217" y="210" />
              <mxPoint x="46" y="210" />
            </Array>
          </mxGeometry>
        </mxCell>
        <mxCell id="1257a543d1cacc4b-37" style="edgeStyle=orthogonalEdgeStyle;rounded=0;html=1;startSize=10;endSize=10;jettySize=auto;orthogonalLoop=1;fontSize=14;endArrow=none;endFill=0;strokeColor=#808080;" parent="Kj9JKMHcZySDFW4jfRYG-15" source="1257a543d1cacc4b-28" target="1257a543d1cacc4b-22" edge="1">
          <mxGeometry relative="1" as="geometry">
            <Array as="points">
              <mxPoint x="217" y="210" />
              <mxPoint x="353" y="210" />
            </Array>
          </mxGeometry>
        </mxCell>
        <mxCell id="1257a543d1cacc4b-38" style="edgeStyle=orthogonalEdgeStyle;rounded=0;html=1;entryX=0.202;entryY=1.004;entryPerimeter=0;startSize=10;endSize=10;jettySize=auto;orthogonalLoop=1;fontSize=14;endArrow=none;endFill=0;strokeColor=#808080;" parent="Kj9JKMHcZySDFW4jfRYG-15" source="1257a543d1cacc4b-28" target="1257a543d1cacc4b-23" edge="1">
          <mxGeometry relative="1" as="geometry">
            <Array as="points">
              <mxPoint x="264" y="210" />
              <mxPoint x="593" y="210" />
              <mxPoint x="593" y="94" />
            </Array>
          </mxGeometry>
        </mxCell>
        <mxCell id="1257a543d1cacc4b-28" value="Veeam backup server" style="shadow=0;dashed=0;html=1;strokeColor=none;fillColor=#4495D1;labelPosition=center;verticalLabelPosition=bottom;verticalAlign=top;shape=mxgraph.veeam.2d.veeam_backup_and_replication_server;fontSize=14;" parent="Kj9JKMHcZySDFW4jfRYG-15" vertex="1">
          <mxGeometry x="180" y="320" width="74" height="72" as="geometry" />
        </mxCell>
        <mxCell id="1257a543d1cacc4b-40" value="Transport&lt;div&gt;service&lt;/div&gt;" style="shadow=0;dashed=0;html=1;strokeColor=none;fillColor=#4495D1;labelPosition=right;verticalLabelPosition=middle;verticalAlign=middle;shape=mxgraph.veeam.2d.data_mover;fontSize=14;align=left;" parent="Kj9JKMHcZySDFW4jfRYG-15" vertex="1">
          <mxGeometry x="72" y="107" width="38" height="38" as="geometry" />
        </mxCell>
        <mxCell id="1257a543d1cacc4b-41" value="Transport&lt;div&gt;service&lt;/div&gt;" style="shadow=0;dashed=0;html=1;strokeColor=none;fillColor=#4495D1;labelPosition=left;verticalLabelPosition=middle;verticalAlign=middle;shape=mxgraph.veeam.2d.data_mover;fontSize=14;align=right;" parent="Kj9JKMHcZySDFW4jfRYG-15" vertex="1">
          <mxGeometry x="540" y="120" width="38" height="38" as="geometry" />
        </mxCell>
        <mxCell id="Kj9JKMHcZySDFW4jfRYG-9" value="" style="pointerEvents=1;shadow=0;dashed=0;html=1;strokeColor=none;fillColor=#4495D1;labelPosition=center;verticalLabelPosition=bottom;verticalAlign=top;align=center;outlineConnect=0;shape=mxgraph.veeam.cluster;" parent="Kj9JKMHcZySDFW4jfRYG-15" vertex="1">
          <mxGeometry x="158" y="147" width="102.8" height="49.2" as="geometry" />
        </mxCell>
        <mxCell id="Kj9JKMHcZySDFW4jfRYG-16" value="" style="group" parent="1" vertex="1" connectable="0">
          <mxGeometry x="1420" y="680" width="514" height="392" as="geometry" />
        </mxCell>
        <mxCell id="1257a543d1cacc4b-46" value="DR site 2" style="whiteSpace=wrap;html=1;fillColor=#dae8fc;fontSize=14;strokeColor=none;verticalAlign=bottom;" parent="Kj9JKMHcZySDFW4jfRYG-16" vertex="1">
          <mxGeometry width="514" height="260" as="geometry" />
        </mxCell>
        <mxCell id="1257a543d1cacc4b-33" style="edgeStyle=elbowEdgeStyle;rounded=0;html=1;startSize=10;endSize=10;jettySize=auto;orthogonalLoop=1;fontSize=14;endArrow=none;endFill=0;strokeColor=#808080;elbow=vertical;" parent="Kj9JKMHcZySDFW4jfRYG-16" source="1257a543d1cacc4b-24" target="1257a543d1cacc4b-25" edge="1">
          <mxGeometry relative="1" as="geometry" />
        </mxCell>
        <mxCell id="1257a543d1cacc4b-24" value="VMware&amp;nbsp;&lt;div&gt;backup&amp;nbsp;&lt;span&gt;proxy&lt;/span&gt;&lt;/div&gt;" style="shadow=0;dashed=0;html=1;strokeColor=none;fillColor=#4495D1;labelPosition=center;verticalLabelPosition=top;verticalAlign=bottom;shape=mxgraph.veeam.2d.proxy;fontSize=14;align=center;" parent="Kj9JKMHcZySDFW4jfRYG-16" vertex="1">
          <mxGeometry x="24.000000000000227" y="47.00000000000023" width="46" height="46" as="geometry" />
        </mxCell>
        <mxCell id="1257a543d1cacc4b-25" value="Source ESX host" style="shadow=0;dashed=0;html=1;strokeColor=none;fillColor=#4495D1;labelPosition=center;verticalLabelPosition=top;verticalAlign=bottom;shape=mxgraph.veeam.2d.hyper_v_vmware_host;fontSize=14;align=center;" parent="Kj9JKMHcZySDFW4jfRYG-16" vertex="1">
          <mxGeometry x="253.99999999999977" y="47" width="124" height="120" as="geometry" />
        </mxCell>
        <mxCell id="1257a543d1cacc4b-34" style="edgeStyle=orthogonalEdgeStyle;rounded=0;html=1;startSize=10;endSize=10;jettySize=auto;orthogonalLoop=1;fontSize=14;endArrow=none;endFill=0;strokeColor=#808080;" parent="Kj9JKMHcZySDFW4jfRYG-16" source="1257a543d1cacc4b-29" target="1257a543d1cacc4b-25" edge="1">
          <mxGeometry relative="1" as="geometry">
            <Array as="points">
              <mxPoint x="461" y="210" />
              <mxPoint x="317" y="210" />
            </Array>
          </mxGeometry>
        </mxCell>
        <mxCell id="1257a543d1cacc4b-35" style="edgeStyle=orthogonalEdgeStyle;rounded=0;html=1;startSize=10;endSize=10;jettySize=auto;orthogonalLoop=1;fontSize=14;endArrow=none;endFill=0;strokeColor=#808080;" parent="Kj9JKMHcZySDFW4jfRYG-16" source="1257a543d1cacc4b-29" target="1257a543d1cacc4b-24" edge="1">
          <mxGeometry relative="1" as="geometry">
            <Array as="points">
              <mxPoint x="461" y="210" />
              <mxPoint x="47" y="210" />
            </Array>
          </mxGeometry>
        </mxCell>
        <mxCell id="1257a543d1cacc4b-29" value="Veeam backup server" style="shadow=0;dashed=0;html=1;strokeColor=none;fillColor=#4495D1;labelPosition=center;verticalLabelPosition=bottom;verticalAlign=top;shape=mxgraph.veeam.2d.veeam_backup_and_replication_server;fontSize=14;" parent="Kj9JKMHcZySDFW4jfRYG-16" vertex="1">
          <mxGeometry x="423.99999999999955" y="320" width="74" height="72" as="geometry" />
        </mxCell>
        <mxCell id="1257a543d1cacc4b-42" value="Transport&lt;div&gt;service&lt;/div&gt;" style="shadow=0;dashed=0;html=1;strokeColor=none;fillColor=#4495D1;labelPosition=right;verticalLabelPosition=middle;verticalAlign=middle;shape=mxgraph.veeam.2d.data_mover;fontSize=14;align=left;" parent="Kj9JKMHcZySDFW4jfRYG-16" vertex="1">
          <mxGeometry x="70" y="97" width="38" height="38" as="geometry" />
        </mxCell>
        <mxCell id="Kj9JKMHcZySDFW4jfRYG-11" value="" style="pointerEvents=1;shadow=0;dashed=0;html=1;strokeColor=none;fillColor=#4495D1;labelPosition=center;verticalLabelPosition=bottom;verticalAlign=top;align=center;outlineConnect=0;shape=mxgraph.veeam.cluster;" parent="Kj9JKMHcZySDFW4jfRYG-16" vertex="1">
          <mxGeometry x="133" y="147" width="102.8" height="49.2" as="geometry" />
        </mxCell>
        <mxCell id="Kj9JKMHcZySDFW4jfRYG-17" value="" style="group" parent="1" vertex="1" connectable="0">
          <mxGeometry x="123" y="120" width="660" height="380" as="geometry" />
        </mxCell>
        <mxCell id="1257a543d1cacc4b-43" value="Production site 1" style="whiteSpace=wrap;html=1;fillColor=#dae8fc;fontSize=14;strokeColor=none;verticalAlign=top;" parent="Kj9JKMHcZySDFW4jfRYG-17" vertex="1">
          <mxGeometry y="104" width="660" height="276" as="geometry" />
        </mxCell>
        <mxCell id="1257a543d1cacc4b-11" style="edgeStyle=orthogonalEdgeStyle;rounded=0;html=1;startSize=10;endSize=10;jettySize=auto;orthogonalLoop=1;fontSize=14;endArrow=none;endFill=0;strokeColor=#808080;" parent="Kj9JKMHcZySDFW4jfRYG-17" source="1257a543d1cacc4b-1" target="1257a543d1cacc4b-5" edge="1">
          <mxGeometry relative="1" as="geometry">
            <Array as="points">
              <mxPoint x="217" y="144" />
              <mxPoint x="352" y="144" />
            </Array>
          </mxGeometry>
        </mxCell>
        <mxCell id="1257a543d1cacc4b-12" style="edgeStyle=orthogonalEdgeStyle;rounded=0;html=1;startSize=10;endSize=10;jettySize=auto;orthogonalLoop=1;fontSize=14;endArrow=none;endFill=0;strokeColor=#808080;" parent="Kj9JKMHcZySDFW4jfRYG-17" source="1257a543d1cacc4b-1" target="1257a543d1cacc4b-7" edge="1">
          <mxGeometry relative="1" as="geometry">
            <Array as="points">
              <mxPoint x="217" y="144" />
              <mxPoint x="593" y="144" />
            </Array>
          </mxGeometry>
        </mxCell>
        <mxCell id="1257a543d1cacc4b-1" value="Veeam backup server" style="shadow=0;dashed=0;html=1;strokeColor=none;fillColor=#4495D1;labelPosition=center;verticalLabelPosition=top;verticalAlign=bottom;shape=mxgraph.veeam.2d.veeam_backup_and_replication_server;fontSize=14;align=center;" parent="Kj9JKMHcZySDFW4jfRYG-17" vertex="1">
          <mxGeometry x="180" width="74" height="72" as="geometry" />
        </mxCell>
        <mxCell id="1257a543d1cacc4b-10" style="edgeStyle=orthogonalEdgeStyle;rounded=0;html=1;startSize=10;endSize=10;jettySize=auto;orthogonalLoop=1;fontSize=14;endArrow=none;endFill=0;strokeColor=#808080;" parent="Kj9JKMHcZySDFW4jfRYG-17" source="1257a543d1cacc4b-3" target="1257a543d1cacc4b-1" edge="1">
          <mxGeometry relative="1" as="geometry">
            <mxPoint x="200" y="104" as="targetPoint" />
            <Array as="points">
              <mxPoint x="46" y="144" />
              <mxPoint x="217" y="144" />
            </Array>
          </mxGeometry>
        </mxCell>
        <mxCell id="1257a543d1cacc4b-3" value="" style="shadow=0;dashed=0;html=1;strokeColor=none;fillColor=#4495D1;labelPosition=center;verticalLabelPosition=bottom;verticalAlign=top;shape=mxgraph.veeam.2d.backup_repository;fontSize=14;" parent="Kj9JKMHcZySDFW4jfRYG-17" vertex="1">
          <mxGeometry x="19.999999999999886" y="286" width="52" height="48" as="geometry" />
        </mxCell>
        <mxCell id="1257a543d1cacc4b-5" value="Source ESX host" style="shadow=0;dashed=0;html=1;strokeColor=none;fillColor=#4495D1;labelPosition=center;verticalLabelPosition=bottom;verticalAlign=top;shape=mxgraph.veeam.2d.vmware_host;fontSize=14;" parent="Kj9JKMHcZySDFW4jfRYG-17" vertex="1">
          <mxGeometry x="290" y="214" width="124" height="120" as="geometry" />
        </mxCell>
        <mxCell id="1257a543d1cacc4b-39" style="edgeStyle=elbowEdgeStyle;rounded=0;elbow=vertical;html=1;startSize=10;endArrow=none;endFill=0;endSize=10;jettySize=auto;orthogonalLoop=1;strokeColor=#808080;fontSize=14;entryX=0.841;entryY=0.917;entryPerimeter=0;" parent="Kj9JKMHcZySDFW4jfRYG-17" source="1257a543d1cacc4b-7" target="1257a543d1cacc4b-5" edge="1">
          <mxGeometry relative="1" as="geometry">
            <mxPoint x="396" y="325" as="targetPoint" />
            <Array as="points">
              <mxPoint x="492" y="324" />
            </Array>
          </mxGeometry>
        </mxCell>
        <mxCell id="1257a543d1cacc4b-7" value="VMware&amp;nbsp;&lt;div&gt;backup&amp;nbsp;&lt;span&gt;proxy&lt;/span&gt;&lt;/div&gt;" style="shadow=0;dashed=0;html=1;strokeColor=none;fillColor=#4495D1;labelPosition=center;verticalLabelPosition=bottom;verticalAlign=top;shape=mxgraph.veeam.2d.proxy;fontSize=14;" parent="Kj9JKMHcZySDFW4jfRYG-17" vertex="1">
          <mxGeometry x="570" y="288" width="46" height="46" as="geometry" />
        </mxCell>
        <mxCell id="1257a543d1cacc4b-18" value="Transport&lt;div&gt;service&lt;/div&gt;" style="shadow=0;dashed=0;html=1;strokeColor=none;fillColor=#4495D1;labelPosition=right;verticalLabelPosition=middle;verticalAlign=middle;shape=mxgraph.veeam.2d.data_mover;fontSize=14;align=left;" parent="Kj9JKMHcZySDFW4jfRYG-17" vertex="1">
          <mxGeometry x="60" y="214" width="38" height="38" as="geometry" />
        </mxCell>
        <mxCell id="1257a543d1cacc4b-19" value="Transport&lt;div&gt;service&lt;/div&gt;" style="shadow=0;dashed=0;html=1;strokeColor=none;fillColor=#4495D1;labelPosition=left;verticalLabelPosition=middle;verticalAlign=middle;shape=mxgraph.veeam.2d.data_mover;fontSize=14;align=right;" parent="Kj9JKMHcZySDFW4jfRYG-17" vertex="1">
          <mxGeometry x="540" y="214" width="38" height="38" as="geometry" />
        </mxCell>
        <mxCell id="Kj9JKMHcZySDFW4jfRYG-8" value="" style="pointerEvents=1;shadow=0;dashed=0;html=1;strokeColor=none;fillColor=#4495D1;labelPosition=center;verticalLabelPosition=bottom;verticalAlign=top;align=center;outlineConnect=0;shape=mxgraph.veeam.cluster;" parent="Kj9JKMHcZySDFW4jfRYG-17" vertex="1">
          <mxGeometry x="158" y="274" width="102.8" height="49.2" as="geometry" />
        </mxCell>
        <mxCell id="Kj9JKMHcZySDFW4jfRYG-20" value="" style="group" parent="1" vertex="1" connectable="0">
          <mxGeometry x="1420" y="110" width="514" height="380" as="geometry" />
        </mxCell>
        <mxCell id="1257a543d1cacc4b-44" value="DR site 1" style="whiteSpace=wrap;html=1;fillColor=#dae8fc;fontSize=14;strokeColor=none;verticalAlign=top;" parent="Kj9JKMHcZySDFW4jfRYG-20" vertex="1">
          <mxGeometry y="103" width="514" height="277" as="geometry" />
        </mxCell>
        <mxCell id="1257a543d1cacc4b-17" style="edgeStyle=orthogonalEdgeStyle;rounded=0;html=1;startSize=10;endSize=10;jettySize=auto;orthogonalLoop=1;fontSize=14;endArrow=none;endFill=0;strokeColor=#808080;" parent="Kj9JKMHcZySDFW4jfRYG-20" source="1257a543d1cacc4b-2" target="1257a543d1cacc4b-8" edge="1">
          <mxGeometry relative="1" as="geometry">
            <Array as="points">
              <mxPoint x="461" y="145" />
              <mxPoint x="47" y="145" />
            </Array>
          </mxGeometry>
        </mxCell>
        <mxCell id="1257a543d1cacc4b-2" value="Veeam backup server" style="shadow=0;dashed=0;html=1;strokeColor=none;fillColor=#4495D1;labelPosition=center;verticalLabelPosition=top;verticalAlign=bottom;shape=mxgraph.veeam.2d.veeam_backup_and_replication_server;fontSize=14;align=center;" parent="Kj9JKMHcZySDFW4jfRYG-20" vertex="1">
          <mxGeometry x="423.9999999999998" width="74" height="72" as="geometry" />
        </mxCell>
        <mxCell id="1257a543d1cacc4b-6" value="Source ESX host" style="shadow=0;dashed=0;html=1;strokeColor=none;fillColor=#4495D1;labelPosition=center;verticalLabelPosition=bottom;verticalAlign=top;shape=mxgraph.veeam.2d.hyper_v_host;fontFamily=Helvetica;fontSize=14;fontColor=#000000;align=center;" parent="Kj9JKMHcZySDFW4jfRYG-20" vertex="1">
          <mxGeometry x="253.99999999999977" y="214" width="124" height="120" as="geometry" />
        </mxCell>
        <mxCell id="1257a543d1cacc4b-16" style="edgeStyle=elbowEdgeStyle;rounded=0;html=1;startSize=10;endSize=10;jettySize=auto;orthogonalLoop=1;fontSize=14;endArrow=none;endFill=0;strokeColor=#808080;elbow=vertical;entryX=0.164;entryY=0.919;entryPerimeter=0;" parent="Kj9JKMHcZySDFW4jfRYG-20" source="1257a543d1cacc4b-8" target="1257a543d1cacc4b-6" edge="1">
          <mxGeometry relative="1" as="geometry">
            <Array as="points">
              <mxPoint x="162" y="324" />
            </Array>
          </mxGeometry>
        </mxCell>
        <mxCell id="1257a543d1cacc4b-8" value="VMware&amp;nbsp;&lt;div&gt;backup&amp;nbsp;&lt;span&gt;proxy&lt;/span&gt;&lt;/div&gt;" style="shadow=0;dashed=0;html=1;strokeColor=none;fillColor=#4495D1;labelPosition=center;verticalLabelPosition=bottom;verticalAlign=top;shape=mxgraph.veeam.2d.proxy;fontSize=14;" parent="Kj9JKMHcZySDFW4jfRYG-20" vertex="1">
          <mxGeometry x="24.000000000000227" y="288" width="46" height="46" as="geometry" />
        </mxCell>
        <mxCell id="1257a543d1cacc4b-20" value="Transport&lt;div&gt;service&lt;/div&gt;" style="shadow=0;dashed=0;html=1;strokeColor=none;fillColor=#4495D1;labelPosition=right;verticalLabelPosition=middle;verticalAlign=middle;shape=mxgraph.veeam.2d.data_mover;fontSize=14;align=left;" parent="Kj9JKMHcZySDFW4jfRYG-20" vertex="1">
          <mxGeometry x="64" y="214" width="38" height="38" as="geometry" />
        </mxCell>
        <mxCell id="Kj9JKMHcZySDFW4jfRYG-10" value="" style="pointerEvents=1;shadow=0;dashed=0;html=1;strokeColor=none;fillColor=#4495D1;labelPosition=center;verticalLabelPosition=bottom;verticalAlign=top;align=center;outlineConnect=0;shape=mxgraph.veeam.cluster;" parent="Kj9JKMHcZySDFW4jfRYG-20" vertex="1">
          <mxGeometry x="132" y="274" width="102.8" height="49.2" as="geometry" />
        </mxCell>
        <mxCell id="Kj9JKMHcZySDFW4jfRYG-30" value="" style="group" parent="1" vertex="1" connectable="0">
          <mxGeometry x="841" y="229" width="500" height="198" as="geometry" />
        </mxCell>
        <mxCell id="Kj9JKMHcZySDFW4jfRYG-25" value="work space" style="whiteSpace=wrap;html=1;fillColor=#dae8fc;fontSize=14;strokeColor=none;verticalAlign=top;" parent="Kj9JKMHcZySDFW4jfRYG-30" vertex="1">
          <mxGeometry width="500" height="198" as="geometry" />
        </mxCell>
        <mxCell id="Kj9JKMHcZySDFW4jfRYG-6" value="" style="pointerEvents=1;shadow=0;dashed=0;html=1;strokeColor=none;fillColor=#4495D1;labelPosition=center;verticalLabelPosition=bottom;verticalAlign=top;align=center;outlineConnect=0;shape=mxgraph.veeam.2d.workstation;" parent="Kj9JKMHcZySDFW4jfRYG-30" vertex="1">
          <mxGeometry x="130" y="48" width="65.4" height="41.2" as="geometry" />
        </mxCell>
        <mxCell id="Kj9JKMHcZySDFW4jfRYG-7" value="" style="pointerEvents=1;shadow=0;dashed=0;html=1;strokeColor=none;fillColor=#4495D1;labelPosition=center;verticalLabelPosition=bottom;verticalAlign=top;align=center;outlineConnect=0;shape=mxgraph.veeam.laptop;" parent="Kj9JKMHcZySDFW4jfRYG-30" vertex="1">
          <mxGeometry x="170" y="118" width="58.4" height="44" as="geometry" />
        </mxCell>
        <mxCell id="Kj9JKMHcZySDFW4jfRYG-21" value="" style="pointerEvents=1;shadow=0;dashed=0;html=1;strokeColor=none;fillColor=#4495D1;labelPosition=center;verticalLabelPosition=bottom;verticalAlign=top;align=center;outlineConnect=0;shape=mxgraph.veeam.2d.workstation;" parent="Kj9JKMHcZySDFW4jfRYG-30" vertex="1">
          <mxGeometry x="233.60000000000002" y="48" width="65.4" height="41.2" as="geometry" />
        </mxCell>
        <mxCell id="Kj9JKMHcZySDFW4jfRYG-22" value="" style="pointerEvents=1;shadow=0;dashed=0;html=1;strokeColor=none;fillColor=#4495D1;labelPosition=center;verticalLabelPosition=bottom;verticalAlign=top;align=center;outlineConnect=0;shape=mxgraph.veeam.2d.workstation;" parent="Kj9JKMHcZySDFW4jfRYG-30" vertex="1">
          <mxGeometry x="330" y="48" width="65.4" height="41.2" as="geometry" />
        </mxCell>
        <mxCell id="Kj9JKMHcZySDFW4jfRYG-23" value="" style="pointerEvents=1;shadow=0;dashed=0;html=1;strokeColor=none;fillColor=#4495D1;labelPosition=center;verticalLabelPosition=bottom;verticalAlign=top;align=center;outlineConnect=0;shape=mxgraph.veeam.laptop;" parent="Kj9JKMHcZySDFW4jfRYG-30" vertex="1">
          <mxGeometry x="280" y="118" width="58.4" height="44" as="geometry" />
        </mxCell>
        <mxCell id="Kj9JKMHcZySDFW4jfRYG-33" style="rounded=0;html=1;startSize=10;endSize=10;jettySize=auto;orthogonalLoop=1;fontSize=14;endArrow=none;endFill=0;strokeColor=#808080;entryX=0.51;entryY=0.029;entryDx=0;entryDy=0;entryPerimeter=0;" parent="1" target="1257a543d1cacc4b-9" edge="1">
          <mxGeometry relative="1" as="geometry">
            <mxPoint x="1075" y="428" as="sourcePoint" />
            <mxPoint x="1085" y="628" as="targetPoint" />
          </mxGeometry>
        </mxCell>
        <mxCell id="Kj9JKMHcZySDFW4jfRYG-150" value="" style="group;fontSize=36;" parent="1" vertex="1" connectable="0">
          <mxGeometry x="2356" y="-179" width="2034.3199999999997" height="1429.8" as="geometry" />
        </mxCell>
        <mxCell id="Kj9JKMHcZySDFW4jfRYG-224" style="edgeStyle=orthogonalEdgeStyle;rounded=0;orthogonalLoop=1;jettySize=auto;html=1;entryX=0.485;entryY=1;entryDx=0;entryDy=0;entryPerimeter=0;fontSize=36;" parent="Kj9JKMHcZySDFW4jfRYG-150" source="Kj9JKMHcZySDFW4jfRYG-56" target="Kj9JKMHcZySDFW4jfRYG-77" edge="1">
          <mxGeometry relative="1" as="geometry" />
        </mxCell>
        <mxCell id="Kj9JKMHcZySDFW4jfRYG-77" value="&lt;h1 style=&quot;font-size: 36px;&quot;&gt;&lt;br style=&quot;font-size: 36px;&quot;&gt;&lt;/h1&gt;" style="rounded=1;whiteSpace=wrap;html=1;fillColor=#f5f5f5;strokeColor=#666666;opacity=70;fontColor=#333333;fontSize=36;" parent="Kj9JKMHcZySDFW4jfRYG-150" vertex="1">
          <mxGeometry y="25" width="2002" height="774" as="geometry" />
        </mxCell>
        <mxCell id="Kj9JKMHcZySDFW4jfRYG-41" value="" style="group;fontSize=36;" parent="Kj9JKMHcZySDFW4jfRYG-150" vertex="1" connectable="0">
          <mxGeometry x="64" y="86" width="563" height="291" as="geometry" />
        </mxCell>
        <mxCell id="Kj9JKMHcZySDFW4jfRYG-40" value="&lt;font style=&quot;font-size: 36px;&quot;&gt;data center 1&lt;/font&gt;" style="whiteSpace=wrap;html=1;fillColor=#dae8fc;fontSize=36;strokeColor=none;verticalAlign=bottom;" parent="Kj9JKMHcZySDFW4jfRYG-41" vertex="1">
          <mxGeometry width="563" height="291" as="geometry" />
        </mxCell>
        <mxCell id="Kj9JKMHcZySDFW4jfRYG-34" value="" style="pointerEvents=1;shadow=0;dashed=0;html=1;strokeColor=none;fillColor=#4495D1;labelPosition=center;verticalLabelPosition=bottom;verticalAlign=top;align=center;outlineConnect=0;shape=mxgraph.veeam.data_center;fontSize=36;" parent="Kj9JKMHcZySDFW4jfRYG-41" vertex="1">
          <mxGeometry x="77" y="47" width="111" height="73.03" as="geometry" />
        </mxCell>
        <mxCell id="Kj9JKMHcZySDFW4jfRYG-36" value="" style="pointerEvents=1;shadow=0;dashed=0;html=1;strokeColor=none;fillColor=#4495D1;labelPosition=center;verticalLabelPosition=bottom;verticalAlign=top;align=center;outlineConnect=0;shape=mxgraph.veeam.data_center;fontSize=36;" parent="Kj9JKMHcZySDFW4jfRYG-41" vertex="1">
          <mxGeometry x="237" y="50" width="111" height="73.03" as="geometry" />
        </mxCell>
        <mxCell id="Kj9JKMHcZySDFW4jfRYG-37" value="" style="pointerEvents=1;shadow=0;dashed=0;html=1;strokeColor=none;fillColor=#4495D1;labelPosition=center;verticalLabelPosition=bottom;verticalAlign=top;align=center;outlineConnect=0;shape=mxgraph.veeam.data_center;fontSize=36;" parent="Kj9JKMHcZySDFW4jfRYG-41" vertex="1">
          <mxGeometry x="392" y="50" width="111" height="73.03" as="geometry" />
        </mxCell>
        <mxCell id="Kj9JKMHcZySDFW4jfRYG-38" value="" style="pointerEvents=1;shadow=0;dashed=0;html=1;strokeColor=none;fillColor=#4495D1;labelPosition=center;verticalLabelPosition=bottom;verticalAlign=top;align=center;outlineConnect=0;shape=mxgraph.veeam.data_center;fontSize=36;" parent="Kj9JKMHcZySDFW4jfRYG-41" vertex="1">
          <mxGeometry x="137" y="162" width="111" height="73.03" as="geometry" />
        </mxCell>
        <mxCell id="Kj9JKMHcZySDFW4jfRYG-39" value="" style="pointerEvents=1;shadow=0;dashed=0;html=1;strokeColor=none;fillColor=#4495D1;labelPosition=center;verticalLabelPosition=bottom;verticalAlign=top;align=center;outlineConnect=0;shape=mxgraph.veeam.data_center;fontSize=36;" parent="Kj9JKMHcZySDFW4jfRYG-41" vertex="1">
          <mxGeometry x="304" y="165" width="111" height="73.03" as="geometry" />
        </mxCell>
        <mxCell id="Kj9JKMHcZySDFW4jfRYG-69" value="" style="shadow=0;dashed=0;html=1;strokeColor=none;fillColor=#4495D1;labelPosition=center;verticalLabelPosition=bottom;verticalAlign=top;align=center;outlineConnect=0;shape=mxgraph.veeam.2d.backup_repository;fontSize=36;" parent="Kj9JKMHcZySDFW4jfRYG-41" vertex="1">
          <mxGeometry x="475" y="190" width="64" height="62" as="geometry" />
        </mxCell>
        <mxCell id="Kj9JKMHcZySDFW4jfRYG-113" value="" style="shadow=0;dashed=0;html=1;labelPosition=center;verticalLabelPosition=bottom;verticalAlign=top;align=center;outlineConnect=0;shape=mxgraph.veeam.2d.full_datastore;strokeColor=none;fillColor=#4495D1;fontSize=36;" parent="Kj9JKMHcZySDFW4jfRYG-41" vertex="1">
          <mxGeometry x="50" y="178.02999999999997" width="44" height="60" as="geometry" />
        </mxCell>
        <mxCell id="Kj9JKMHcZySDFW4jfRYG-42" value="" style="group;fontSize=36;" parent="Kj9JKMHcZySDFW4jfRYG-150" vertex="1" connectable="0">
          <mxGeometry x="704" y="86" width="563" height="291" as="geometry" />
        </mxCell>
        <mxCell id="Kj9JKMHcZySDFW4jfRYG-43" value="&lt;font style=&quot;font-size: 36px;&quot;&gt;data center 2&lt;/font&gt;" style="whiteSpace=wrap;html=1;fillColor=#dae8fc;fontSize=36;strokeColor=none;verticalAlign=bottom;" parent="Kj9JKMHcZySDFW4jfRYG-42" vertex="1">
          <mxGeometry width="563" height="291" as="geometry" />
        </mxCell>
        <mxCell id="Kj9JKMHcZySDFW4jfRYG-44" value="" style="pointerEvents=1;shadow=0;dashed=0;html=1;strokeColor=none;fillColor=#4495D1;labelPosition=center;verticalLabelPosition=bottom;verticalAlign=top;align=center;outlineConnect=0;shape=mxgraph.veeam.data_center;fontSize=36;" parent="Kj9JKMHcZySDFW4jfRYG-42" vertex="1">
          <mxGeometry x="77" y="47" width="111" height="73.03" as="geometry" />
        </mxCell>
        <mxCell id="Kj9JKMHcZySDFW4jfRYG-45" value="" style="pointerEvents=1;shadow=0;dashed=0;html=1;strokeColor=none;fillColor=#4495D1;labelPosition=center;verticalLabelPosition=bottom;verticalAlign=top;align=center;outlineConnect=0;shape=mxgraph.veeam.data_center;fontSize=36;" parent="Kj9JKMHcZySDFW4jfRYG-42" vertex="1">
          <mxGeometry x="237" y="50" width="111" height="73.03" as="geometry" />
        </mxCell>
        <mxCell id="Kj9JKMHcZySDFW4jfRYG-46" value="" style="pointerEvents=1;shadow=0;dashed=0;html=1;strokeColor=none;fillColor=#4495D1;labelPosition=center;verticalLabelPosition=bottom;verticalAlign=top;align=center;outlineConnect=0;shape=mxgraph.veeam.data_center;fontSize=36;" parent="Kj9JKMHcZySDFW4jfRYG-42" vertex="1">
          <mxGeometry x="392" y="50" width="111" height="73.03" as="geometry" />
        </mxCell>
        <mxCell id="Kj9JKMHcZySDFW4jfRYG-47" value="" style="pointerEvents=1;shadow=0;dashed=0;html=1;strokeColor=none;fillColor=#4495D1;labelPosition=center;verticalLabelPosition=bottom;verticalAlign=top;align=center;outlineConnect=0;shape=mxgraph.veeam.data_center;fontSize=36;" parent="Kj9JKMHcZySDFW4jfRYG-42" vertex="1">
          <mxGeometry x="137" y="162" width="111" height="73.03" as="geometry" />
        </mxCell>
        <mxCell id="Kj9JKMHcZySDFW4jfRYG-48" value="" style="pointerEvents=1;shadow=0;dashed=0;html=1;strokeColor=none;fillColor=#4495D1;labelPosition=center;verticalLabelPosition=bottom;verticalAlign=top;align=center;outlineConnect=0;shape=mxgraph.veeam.data_center;fontSize=36;" parent="Kj9JKMHcZySDFW4jfRYG-42" vertex="1">
          <mxGeometry x="304" y="165" width="111" height="73.03" as="geometry" />
        </mxCell>
        <mxCell id="Kj9JKMHcZySDFW4jfRYG-70" value="" style="shadow=0;dashed=0;html=1;strokeColor=none;fillColor=#4495D1;labelPosition=center;verticalLabelPosition=bottom;verticalAlign=top;align=center;outlineConnect=0;shape=mxgraph.veeam.2d.backup_repository;fontSize=36;" parent="Kj9JKMHcZySDFW4jfRYG-42" vertex="1">
          <mxGeometry x="472" y="193" width="64" height="62" as="geometry" />
        </mxCell>
        <mxCell id="Kj9JKMHcZySDFW4jfRYG-105" value="" style="shadow=0;dashed=0;html=1;labelPosition=center;verticalLabelPosition=bottom;verticalAlign=top;align=center;outlineConnect=0;shape=mxgraph.veeam.2d.full_datastore;strokeColor=none;fillColor=#4495D1;fontSize=36;" parent="Kj9JKMHcZySDFW4jfRYG-42" vertex="1">
          <mxGeometry x="62" y="173" width="44" height="60" as="geometry" />
        </mxCell>
        <mxCell id="Kj9JKMHcZySDFW4jfRYG-49" value="" style="group;fontSize=36;" parent="Kj9JKMHcZySDFW4jfRYG-150" vertex="1" connectable="0">
          <mxGeometry x="1359" y="86" width="563" height="291" as="geometry" />
        </mxCell>
        <mxCell id="Kj9JKMHcZySDFW4jfRYG-50" value="&lt;font style=&quot;font-size: 36px;&quot;&gt;data center 3&lt;/font&gt;" style="whiteSpace=wrap;html=1;fillColor=#dae8fc;fontSize=36;strokeColor=none;verticalAlign=bottom;" parent="Kj9JKMHcZySDFW4jfRYG-49" vertex="1">
          <mxGeometry width="563" height="291" as="geometry" />
        </mxCell>
        <mxCell id="Kj9JKMHcZySDFW4jfRYG-51" value="" style="pointerEvents=1;shadow=0;dashed=0;html=1;strokeColor=none;fillColor=#4495D1;labelPosition=center;verticalLabelPosition=bottom;verticalAlign=top;align=center;outlineConnect=0;shape=mxgraph.veeam.data_center;fontSize=36;" parent="Kj9JKMHcZySDFW4jfRYG-49" vertex="1">
          <mxGeometry x="77" y="47" width="111" height="73.03" as="geometry" />
        </mxCell>
        <mxCell id="Kj9JKMHcZySDFW4jfRYG-52" value="" style="pointerEvents=1;shadow=0;dashed=0;html=1;strokeColor=none;fillColor=#4495D1;labelPosition=center;verticalLabelPosition=bottom;verticalAlign=top;align=center;outlineConnect=0;shape=mxgraph.veeam.data_center;fontSize=36;" parent="Kj9JKMHcZySDFW4jfRYG-49" vertex="1">
          <mxGeometry x="237" y="50" width="111" height="73.03" as="geometry" />
        </mxCell>
        <mxCell id="Kj9JKMHcZySDFW4jfRYG-53" value="" style="pointerEvents=1;shadow=0;dashed=0;html=1;strokeColor=none;fillColor=#4495D1;labelPosition=center;verticalLabelPosition=bottom;verticalAlign=top;align=center;outlineConnect=0;shape=mxgraph.veeam.data_center;fontSize=36;" parent="Kj9JKMHcZySDFW4jfRYG-49" vertex="1">
          <mxGeometry x="392" y="50" width="111" height="73.03" as="geometry" />
        </mxCell>
        <mxCell id="Kj9JKMHcZySDFW4jfRYG-54" value="" style="pointerEvents=1;shadow=0;dashed=0;html=1;strokeColor=none;fillColor=#4495D1;labelPosition=center;verticalLabelPosition=bottom;verticalAlign=top;align=center;outlineConnect=0;shape=mxgraph.veeam.data_center;fontSize=36;" parent="Kj9JKMHcZySDFW4jfRYG-49" vertex="1">
          <mxGeometry x="137" y="162" width="111" height="73.03" as="geometry" />
        </mxCell>
        <mxCell id="Kj9JKMHcZySDFW4jfRYG-55" value="" style="pointerEvents=1;shadow=0;dashed=0;html=1;strokeColor=none;fillColor=#4495D1;labelPosition=center;verticalLabelPosition=bottom;verticalAlign=top;align=center;outlineConnect=0;shape=mxgraph.veeam.data_center;fontSize=36;" parent="Kj9JKMHcZySDFW4jfRYG-49" vertex="1">
          <mxGeometry x="304" y="165" width="111" height="73.03" as="geometry" />
        </mxCell>
        <mxCell id="Kj9JKMHcZySDFW4jfRYG-71" value="" style="shadow=0;dashed=0;html=1;strokeColor=none;fillColor=#4495D1;labelPosition=center;verticalLabelPosition=bottom;verticalAlign=top;align=center;outlineConnect=0;shape=mxgraph.veeam.2d.backup_repository;fontSize=36;" parent="Kj9JKMHcZySDFW4jfRYG-49" vertex="1">
          <mxGeometry x="471" y="193" width="64" height="62" as="geometry" />
        </mxCell>
        <mxCell id="Kj9JKMHcZySDFW4jfRYG-106" value="" style="shadow=0;dashed=0;html=1;labelPosition=center;verticalLabelPosition=bottom;verticalAlign=top;align=center;outlineConnect=0;shape=mxgraph.veeam.2d.full_datastore;strokeColor=none;fillColor=#4495D1;fontSize=36;" parent="Kj9JKMHcZySDFW4jfRYG-49" vertex="1">
          <mxGeometry x="62" y="173" width="44" height="60" as="geometry" />
        </mxCell>
        <mxCell id="Kj9JKMHcZySDFW4jfRYG-57" value="" style="group;fontSize=36;" parent="Kj9JKMHcZySDFW4jfRYG-150" vertex="1" connectable="0">
          <mxGeometry x="619.34" y="467" width="732.32" height="290" as="geometry" />
        </mxCell>
        <mxCell id="Kj9JKMHcZySDFW4jfRYG-58" value="&lt;font style=&quot;font-size: 36px;&quot;&gt;work space&lt;/font&gt;" style="whiteSpace=wrap;html=1;fillColor=#dae8fc;fontSize=36;strokeColor=none;verticalAlign=top;" parent="Kj9JKMHcZySDFW4jfRYG-57" vertex="1">
          <mxGeometry width="732.32" height="290" as="geometry" />
        </mxCell>
        <mxCell id="Kj9JKMHcZySDFW4jfRYG-59" value="" style="pointerEvents=1;shadow=0;dashed=0;html=1;strokeColor=none;fillColor=#4495D1;labelPosition=center;verticalLabelPosition=bottom;verticalAlign=top;align=center;outlineConnect=0;shape=mxgraph.veeam.2d.workstation;fontSize=36;" parent="Kj9JKMHcZySDFW4jfRYG-57" vertex="1">
          <mxGeometry x="190.40320000000003" y="70.3030303030303" width="95.787456" height="60.343434343434346" as="geometry" />
        </mxCell>
        <mxCell id="Kj9JKMHcZySDFW4jfRYG-60" value="" style="pointerEvents=1;shadow=0;dashed=0;html=1;strokeColor=none;fillColor=#4495D1;labelPosition=center;verticalLabelPosition=bottom;verticalAlign=top;align=center;outlineConnect=0;shape=mxgraph.veeam.laptop;fontSize=36;" parent="Kj9JKMHcZySDFW4jfRYG-57" vertex="1">
          <mxGeometry x="248.98880000000003" y="172.82828282828282" width="85.53497600000001" height="64.44444444444444" as="geometry" />
        </mxCell>
        <mxCell id="Kj9JKMHcZySDFW4jfRYG-61" value="" style="pointerEvents=1;shadow=0;dashed=0;html=1;strokeColor=none;fillColor=#4495D1;labelPosition=center;verticalLabelPosition=bottom;verticalAlign=top;align=center;outlineConnect=0;shape=mxgraph.veeam.2d.workstation;fontSize=36;" parent="Kj9JKMHcZySDFW4jfRYG-57" vertex="1">
          <mxGeometry x="342.13990400000006" y="70.3030303030303" width="95.787456" height="60.343434343434346" as="geometry" />
        </mxCell>
        <mxCell id="Kj9JKMHcZySDFW4jfRYG-62" value="" style="pointerEvents=1;shadow=0;dashed=0;html=1;strokeColor=none;fillColor=#4495D1;labelPosition=center;verticalLabelPosition=bottom;verticalAlign=top;align=center;outlineConnect=0;shape=mxgraph.veeam.2d.workstation;fontSize=36;" parent="Kj9JKMHcZySDFW4jfRYG-57" vertex="1">
          <mxGeometry x="483.3312000000001" y="70.3030303030303" width="95.787456" height="60.343434343434346" as="geometry" />
        </mxCell>
        <mxCell id="Kj9JKMHcZySDFW4jfRYG-63" value="" style="pointerEvents=1;shadow=0;dashed=0;html=1;strokeColor=none;fillColor=#4495D1;labelPosition=center;verticalLabelPosition=bottom;verticalAlign=top;align=center;outlineConnect=0;shape=mxgraph.veeam.laptop;fontSize=36;" parent="Kj9JKMHcZySDFW4jfRYG-57" vertex="1">
          <mxGeometry x="410.09920000000005" y="172.82828282828282" width="85.53497600000001" height="64.44444444444444" as="geometry" />
        </mxCell>
        <mxCell id="Kj9JKMHcZySDFW4jfRYG-72" value="" style="shadow=0;dashed=0;html=1;strokeColor=none;fillColor=#4495D1;labelPosition=center;verticalLabelPosition=bottom;verticalAlign=top;align=center;outlineConnect=0;shape=mxgraph.veeam.company_user;fontSize=36;" parent="Kj9JKMHcZySDFW4jfRYG-57" vertex="1">
          <mxGeometry x="137" y="175" width="44.4" height="48.8" as="geometry" />
        </mxCell>
        <mxCell id="Kj9JKMHcZySDFW4jfRYG-73" value="" style="shadow=0;dashed=0;html=1;strokeColor=none;fillColor=#4495D1;labelPosition=center;verticalLabelPosition=bottom;verticalAlign=top;align=center;outlineConnect=0;shape=mxgraph.veeam.company_user;fontSize=36;" parent="Kj9JKMHcZySDFW4jfRYG-57" vertex="1">
          <mxGeometry x="134" y="67" width="44.4" height="48.8" as="geometry" />
        </mxCell>
        <mxCell id="Kj9JKMHcZySDFW4jfRYG-74" value="" style="shadow=0;dashed=0;html=1;strokeColor=none;fillColor=#4495D1;labelPosition=center;verticalLabelPosition=bottom;verticalAlign=top;align=center;outlineConnect=0;shape=mxgraph.veeam.portal_admin;fontSize=36;" parent="Kj9JKMHcZySDFW4jfRYG-57" vertex="1">
          <mxGeometry x="625" y="171" width="44.4" height="48.8" as="geometry" />
        </mxCell>
        <mxCell id="Kj9JKMHcZySDFW4jfRYG-75" value="" style="shadow=0;dashed=0;html=1;strokeColor=none;fillColor=#4495D1;labelPosition=center;verticalLabelPosition=bottom;verticalAlign=top;align=center;outlineConnect=0;shape=mxgraph.veeam.company_administrator;fontSize=36;" parent="Kj9JKMHcZySDFW4jfRYG-57" vertex="1">
          <mxGeometry x="625" y="67" width="44.4" height="48.8" as="geometry" />
        </mxCell>
        <mxCell id="Kj9JKMHcZySDFW4jfRYG-82" value="" style="group;fontSize=36;" parent="Kj9JKMHcZySDFW4jfRYG-150" vertex="1" connectable="0">
          <mxGeometry x="1302" y="883" width="732.32" height="290" as="geometry" />
        </mxCell>
        <mxCell id="Kj9JKMHcZySDFW4jfRYG-83" value="&lt;font style=&quot;font-size: 36px;&quot;&gt;DMZ2&lt;/font&gt;" style="whiteSpace=wrap;html=1;fillColor=#dae8fc;fontSize=36;strokeColor=none;verticalAlign=top;" parent="Kj9JKMHcZySDFW4jfRYG-82" vertex="1">
          <mxGeometry width="587" height="290" as="geometry" />
        </mxCell>
        <mxCell id="Kj9JKMHcZySDFW4jfRYG-87" value="" style="pointerEvents=1;shadow=0;dashed=0;html=1;strokeColor=none;fillColor=#4495D1;labelPosition=center;verticalLabelPosition=bottom;verticalAlign=top;align=center;outlineConnect=0;shape=mxgraph.veeam.2d.workstation;fontSize=36;" parent="Kj9JKMHcZySDFW4jfRYG-82" vertex="1">
          <mxGeometry x="127.2112000000001" y="176.9330303030303" width="95.787456" height="60.343434343434346" as="geometry" />
        </mxCell>
        <mxCell id="Kj9JKMHcZySDFW4jfRYG-114" value="" style="shadow=0;dashed=0;html=1;strokeColor=none;fillColor=#4495D1;labelPosition=center;verticalLabelPosition=bottom;verticalAlign=top;align=center;outlineConnect=0;shape=mxgraph.veeam.2d.medium_datastore;fontSize=36;" parent="Kj9JKMHcZySDFW4jfRYG-82" vertex="1">
          <mxGeometry x="274" y="166" width="75.31" height="77.4" as="geometry" />
        </mxCell>
        <mxCell id="Kj9JKMHcZySDFW4jfRYG-127" value="" style="pointerEvents=1;shadow=0;dashed=0;html=1;strokeColor=none;fillColor=#4495D1;labelPosition=center;verticalLabelPosition=bottom;verticalAlign=top;align=center;outlineConnect=0;shape=mxgraph.veeam.2d.esx_esxi;fontSize=36;" parent="Kj9JKMHcZySDFW4jfRYG-82" vertex="1">
          <mxGeometry x="124" y="69" width="44" height="70.8" as="geometry" />
        </mxCell>
        <mxCell id="Kj9JKMHcZySDFW4jfRYG-130" value="" style="pointerEvents=1;shadow=0;dashed=0;html=1;strokeColor=none;fillColor=#4495D1;labelPosition=center;verticalLabelPosition=bottom;verticalAlign=top;align=center;outlineConnect=0;shape=mxgraph.veeam.2d.esx_esxi;fontSize=36;" parent="Kj9JKMHcZySDFW4jfRYG-82" vertex="1">
          <mxGeometry x="235" y="69" width="44" height="70.8" as="geometry" />
        </mxCell>
        <mxCell id="Kj9JKMHcZySDFW4jfRYG-140" value="" style="pointerEvents=1;shadow=0;dashed=0;html=1;strokeColor=none;fillColor=#4495D1;labelPosition=center;verticalLabelPosition=bottom;verticalAlign=top;align=center;outlineConnect=0;shape=mxgraph.veeam.2d.esx_esxi;fontSize=36;" parent="Kj9JKMHcZySDFW4jfRYG-82" vertex="1">
          <mxGeometry x="342" y="69" width="44" height="70.8" as="geometry" />
        </mxCell>
        <mxCell id="Kj9JKMHcZySDFW4jfRYG-141" value="" style="pointerEvents=1;shadow=0;dashed=0;html=1;strokeColor=none;fillColor=#4495D1;labelPosition=center;verticalLabelPosition=bottom;verticalAlign=top;align=center;outlineConnect=0;shape=mxgraph.veeam.2d.esx_esxi;fontSize=36;" parent="Kj9JKMHcZySDFW4jfRYG-82" vertex="1">
          <mxGeometry x="454" y="71" width="44" height="70.8" as="geometry" />
        </mxCell>
        <mxCell id="Kj9JKMHcZySDFW4jfRYG-142" value="" style="pointerEvents=1;shadow=0;dashed=0;html=1;strokeColor=none;fillColor=#4495D1;labelPosition=center;verticalLabelPosition=bottom;verticalAlign=top;align=center;outlineConnect=0;shape=mxgraph.veeam.server_stack;fontSize=36;" parent="Kj9JKMHcZySDFW4jfRYG-82" vertex="1">
          <mxGeometry x="418.2" y="172.3" width="71.8" height="69.6" as="geometry" />
        </mxCell>
        <mxCell id="Kj9JKMHcZySDFW4jfRYG-93" value="" style="group;fontSize=36;" parent="Kj9JKMHcZySDFW4jfRYG-150" vertex="1" connectable="0">
          <mxGeometry x="59" y="883" width="732.32" height="290" as="geometry" />
        </mxCell>
        <mxCell id="Kj9JKMHcZySDFW4jfRYG-237" style="edgeStyle=orthogonalEdgeStyle;rounded=0;orthogonalLoop=1;jettySize=auto;html=1;exitX=1;exitY=0.5;exitDx=0;exitDy=0;fontSize=36;" parent="Kj9JKMHcZySDFW4jfRYG-93" source="Kj9JKMHcZySDFW4jfRYG-94" edge="1">
          <mxGeometry relative="1" as="geometry">
            <mxPoint x="833.0044555664062" y="146" as="targetPoint" />
          </mxGeometry>
        </mxCell>
        <mxCell id="Kj9JKMHcZySDFW4jfRYG-94" value="&lt;font style=&quot;font-size: 36px;&quot;&gt;DMZ1&lt;/font&gt;" style="whiteSpace=wrap;html=1;fillColor=#dae8fc;fontSize=36;strokeColor=none;verticalAlign=top;" parent="Kj9JKMHcZySDFW4jfRYG-93" vertex="1">
          <mxGeometry width="587" height="290" as="geometry" />
        </mxCell>
        <mxCell id="Kj9JKMHcZySDFW4jfRYG-95" value="" style="pointerEvents=1;shadow=0;dashed=0;html=1;strokeColor=none;fillColor=#4495D1;labelPosition=center;verticalLabelPosition=bottom;verticalAlign=top;align=center;outlineConnect=0;shape=mxgraph.veeam.laptop;fontSize=36;" parent="Kj9JKMHcZySDFW4jfRYG-93" vertex="1">
          <mxGeometry x="275.8688" y="172.82828282828282" width="85.53497600000001" height="64.44444444444444" as="geometry" />
        </mxCell>
        <mxCell id="Kj9JKMHcZySDFW4jfRYG-96" value="" style="pointerEvents=1;shadow=0;dashed=0;html=1;strokeColor=none;fillColor=#4495D1;labelPosition=center;verticalLabelPosition=bottom;verticalAlign=top;align=center;outlineConnect=0;shape=mxgraph.veeam.2d.workstation;fontSize=36;" parent="Kj9JKMHcZySDFW4jfRYG-93" vertex="1">
          <mxGeometry x="127.2112000000001" y="176.9330303030303" width="95.787456" height="60.343434343434346" as="geometry" />
        </mxCell>
        <mxCell id="Kj9JKMHcZySDFW4jfRYG-97" value="" style="pointerEvents=1;shadow=0;dashed=0;html=1;strokeColor=none;fillColor=#4495D1;labelPosition=center;verticalLabelPosition=bottom;verticalAlign=top;align=center;outlineConnect=0;shape=mxgraph.veeam.laptop;fontSize=36;" parent="Kj9JKMHcZySDFW4jfRYG-93" vertex="1">
          <mxGeometry x="410.09920000000005" y="172.82828282828282" width="85.53497600000001" height="64.44444444444444" as="geometry" />
        </mxCell>
        <mxCell id="Kj9JKMHcZySDFW4jfRYG-98" value="" style="shadow=0;dashed=0;html=1;strokeColor=none;fillColor=#4495D1;labelPosition=center;verticalLabelPosition=bottom;verticalAlign=top;align=center;outlineConnect=0;shape=mxgraph.veeam.company_user;fontSize=36;" parent="Kj9JKMHcZySDFW4jfRYG-93" vertex="1">
          <mxGeometry x="223" y="67" width="44.4" height="48.8" as="geometry" />
        </mxCell>
        <mxCell id="Kj9JKMHcZySDFW4jfRYG-99" value="" style="shadow=0;dashed=0;html=1;strokeColor=none;fillColor=#4495D1;labelPosition=center;verticalLabelPosition=bottom;verticalAlign=top;align=center;outlineConnect=0;shape=mxgraph.veeam.company_user;fontSize=36;" parent="Kj9JKMHcZySDFW4jfRYG-93" vertex="1">
          <mxGeometry x="134" y="67" width="44.4" height="48.8" as="geometry" />
        </mxCell>
        <mxCell id="Kj9JKMHcZySDFW4jfRYG-100" value="" style="shadow=0;dashed=0;html=1;strokeColor=none;fillColor=#4495D1;labelPosition=center;verticalLabelPosition=bottom;verticalAlign=top;align=center;outlineConnect=0;shape=mxgraph.veeam.portal_admin;fontSize=36;" parent="Kj9JKMHcZySDFW4jfRYG-93" vertex="1">
          <mxGeometry x="421" y="64" width="44.4" height="48.8" as="geometry" />
        </mxCell>
        <mxCell id="Kj9JKMHcZySDFW4jfRYG-101" value="" style="shadow=0;dashed=0;html=1;strokeColor=none;fillColor=#4495D1;labelPosition=center;verticalLabelPosition=bottom;verticalAlign=top;align=center;outlineConnect=0;shape=mxgraph.veeam.company_administrator;fontSize=36;" parent="Kj9JKMHcZySDFW4jfRYG-93" vertex="1">
          <mxGeometry x="317" y="64" width="44.4" height="48.8" as="geometry" />
        </mxCell>
        <mxCell id="Kj9JKMHcZySDFW4jfRYG-107" style="rounded=0;orthogonalLoop=1;jettySize=auto;html=1;exitX=0.25;exitY=0;exitDx=0;exitDy=0;fontSize=36;" parent="Kj9JKMHcZySDFW4jfRYG-150" source="Kj9JKMHcZySDFW4jfRYG-58" target="Kj9JKMHcZySDFW4jfRYG-40" edge="1">
          <mxGeometry relative="1" as="geometry" />
        </mxCell>
        <mxCell id="Kj9JKMHcZySDFW4jfRYG-108" style="rounded=0;orthogonalLoop=1;jettySize=auto;html=1;exitX=0.5;exitY=0;exitDx=0;exitDy=0;fontSize=36;" parent="Kj9JKMHcZySDFW4jfRYG-150" source="Kj9JKMHcZySDFW4jfRYG-58" target="Kj9JKMHcZySDFW4jfRYG-43" edge="1">
          <mxGeometry relative="1" as="geometry" />
        </mxCell>
        <mxCell id="Kj9JKMHcZySDFW4jfRYG-109" style="rounded=0;orthogonalLoop=1;jettySize=auto;html=1;exitX=0.75;exitY=0;exitDx=0;exitDy=0;fontSize=36;" parent="Kj9JKMHcZySDFW4jfRYG-150" source="Kj9JKMHcZySDFW4jfRYG-58" target="Kj9JKMHcZySDFW4jfRYG-50" edge="1">
          <mxGeometry relative="1" as="geometry" />
        </mxCell>
        <mxCell id="Kj9JKMHcZySDFW4jfRYG-147" value="" style="image;sketch=0;aspect=fixed;html=1;points=[];align=center;fontSize=36;image=img/lib/mscae/Azure_Firewall.svg;" parent="Kj9JKMHcZySDFW4jfRYG-150" vertex="1">
          <mxGeometry x="903.5" y="925" width="152" height="152" as="geometry" />
        </mxCell>
        <mxCell id="Kj9JKMHcZySDFW4jfRYG-56" value="" style="shadow=0;dashed=0;html=1;strokeColor=none;fillColor=#4495D1;labelPosition=center;verticalLabelPosition=bottom;verticalAlign=top;align=center;outlineConnect=0;shape=mxgraph.veeam.globe;fontSize=36;" parent="Kj9JKMHcZySDFW4jfRYG-150" vertex="1">
          <mxGeometry x="890.9999999999998" y="1276" width="160.8" height="160.8" as="geometry" />
        </mxCell>
        <mxCell id="Kj9JKMHcZySDFW4jfRYG-227" value="" style="image;sketch=0;aspect=fixed;html=1;points=[];align=center;fontSize=36;image=img/lib/mscae/Azure_Firewall.svg;" parent="Kj9JKMHcZySDFW4jfRYG-150" vertex="1">
          <mxGeometry x="477" y="1249" width="152" height="152" as="geometry" />
        </mxCell>
        <mxCell id="Kj9JKMHcZySDFW4jfRYG-226" value="" style="image;sketch=0;aspect=fixed;html=1;points=[];align=center;fontSize=36;image=img/lib/mscae/Azure_Firewall.svg;" parent="Kj9JKMHcZySDFW4jfRYG-150" vertex="1">
          <mxGeometry x="1285" y="1254" width="152" height="152" as="geometry" />
        </mxCell>
        <mxCell id="Kj9JKMHcZySDFW4jfRYG-235" style="edgeStyle=orthogonalEdgeStyle;rounded=0;orthogonalLoop=1;jettySize=auto;html=1;exitX=0;exitY=0.5;exitDx=0;exitDy=0;fontSize=36;" parent="Kj9JKMHcZySDFW4jfRYG-150" source="Kj9JKMHcZySDFW4jfRYG-83" target="Kj9JKMHcZySDFW4jfRYG-147" edge="1">
          <mxGeometry relative="1" as="geometry">
            <Array as="points">
              <mxPoint x="1114" y="1028" />
              <mxPoint x="1114" y="1028" />
            </Array>
          </mxGeometry>
        </mxCell>
        <mxCell id="Kj9JKMHcZySDFW4jfRYG-151" value="" style="sketch=0;pointerEvents=1;shadow=0;dashed=0;html=1;strokeColor=none;fillColor=#DF8C42;labelPosition=center;verticalLabelPosition=bottom;verticalAlign=top;align=center;outlineConnect=0;shape=mxgraph.veeam2.nas_backup;" parent="1" vertex="1">
          <mxGeometry x="455.75" y="1276" width="48" height="48" as="geometry" />
        </mxCell>
        <mxCell id="Kj9JKMHcZySDFW4jfRYG-152" value="" style="shadow=0;dashed=0;html=1;strokeColor=none;fillColor=#EF8F21;labelPosition=center;verticalLabelPosition=bottom;verticalAlign=top;align=center;outlineConnect=0;shape=mxgraph.veeam.nas_backup;" parent="1" vertex="1">
          <mxGeometry x="389.75" y="1276" width="49" height="49" as="geometry" />
        </mxCell>
        <mxCell id="Kj9JKMHcZySDFW4jfRYG-155" style="edgeStyle=orthogonalEdgeStyle;rounded=0;orthogonalLoop=1;jettySize=auto;html=1;entryX=0;entryY=0.55;entryDx=0;entryDy=0;entryPerimeter=0;" parent="1" source="Kj9JKMHcZySDFW4jfRYG-154" target="Kj9JKMHcZySDFW4jfRYG-153" edge="1">
          <mxGeometry relative="1" as="geometry">
            <mxPoint x="370.051280095027" y="1304.8" as="targetPoint" />
          </mxGeometry>
        </mxCell>
        <mxCell id="Kj9JKMHcZySDFW4jfRYG-154" value="" style="pointerEvents=1;shadow=0;dashed=0;html=1;strokeColor=none;fillColor=#4495D1;labelPosition=center;verticalLabelPosition=bottom;verticalAlign=top;align=center;outlineConnect=0;shape=mxgraph.veeam.server_stack;" parent="1" vertex="1">
          <mxGeometry x="232" y="1280" width="57.2" height="49.6" as="geometry" />
        </mxCell>
        <mxCell id="Kj9JKMHcZySDFW4jfRYG-156" value="ECS" style="text;html=1;align=center;verticalAlign=middle;resizable=0;points=[];autosize=1;strokeColor=none;fillColor=none;" parent="1" vertex="1">
          <mxGeometry x="239.1" y="1329.6" width="43" height="26" as="geometry" />
        </mxCell>
        <mxCell id="Kj9JKMHcZySDFW4jfRYG-157" value="NAS" style="text;html=1;align=center;verticalAlign=middle;resizable=0;points=[];autosize=1;strokeColor=none;fillColor=none;" parent="1" vertex="1">
          <mxGeometry x="423.25" y="1343" width="43" height="26" as="geometry" />
        </mxCell>
        <mxCell id="Kj9JKMHcZySDFW4jfRYG-158" value="存储服务" style="text;html=1;align=center;verticalAlign=middle;resizable=0;points=[];autosize=1;strokeColor=none;fillColor=none;fontSize=10;" parent="1" vertex="1">
          <mxGeometry x="302.2" y="1306.6" width="58" height="24" as="geometry" />
        </mxCell>
        <mxCell id="Kj9JKMHcZySDFW4jfRYG-159" value="Owner Cloud+httpd" style="text;html=1;align=center;verticalAlign=middle;resizable=0;points=[];autosize=1;strokeColor=none;fillColor=none;fontSize=10;" parent="1" vertex="1">
          <mxGeometry x="209.6" y="1256" width="104" height="24" as="geometry" />
        </mxCell>
        <mxCell id="Kj9JKMHcZySDFW4jfRYG-160" value="" style="html=1;shadow=0;dashed=0;shape=mxgraph.bootstrap.checkbox2;labelPosition=right;verticalLabelPosition=middle;align=left;verticalAlign=middle;fillColor=#fad7ac;checked=0;spacing=5;checkedFill=#0085FC;checkedStroke=#ffffff;sketch=0;strokeColor=#b46504;opacity=30;" parent="1" vertex="1">
          <mxGeometry x="385.4" y="1399.5" width="139" height="86" as="geometry" />
        </mxCell>
        <mxCell id="Kj9JKMHcZySDFW4jfRYG-161" value="" style="sketch=0;pointerEvents=1;shadow=0;dashed=0;html=1;strokeColor=none;fillColor=#DF8C42;labelPosition=center;verticalLabelPosition=bottom;verticalAlign=top;align=center;outlineConnect=0;shape=mxgraph.veeam2.nas_backup;" parent="1" vertex="1">
          <mxGeometry x="464.15" y="1418" width="48" height="48" as="geometry" />
        </mxCell>
        <mxCell id="Kj9JKMHcZySDFW4jfRYG-162" value="" style="shadow=0;dashed=0;html=1;strokeColor=none;fillColor=#EF8F21;labelPosition=center;verticalLabelPosition=bottom;verticalAlign=top;align=center;outlineConnect=0;shape=mxgraph.veeam.nas_backup;" parent="1" vertex="1">
          <mxGeometry x="398.15" y="1418" width="49" height="49" as="geometry" />
        </mxCell>
        <mxCell id="Kj9JKMHcZySDFW4jfRYG-163" style="edgeStyle=orthogonalEdgeStyle;rounded=0;orthogonalLoop=1;jettySize=auto;html=1;entryX=0;entryY=0.55;entryDx=0;entryDy=0;entryPerimeter=0;" parent="1" source="Kj9JKMHcZySDFW4jfRYG-164" target="Kj9JKMHcZySDFW4jfRYG-160" edge="1">
          <mxGeometry relative="1" as="geometry">
            <mxPoint x="378.45128009502696" y="1446.8" as="targetPoint" />
          </mxGeometry>
        </mxCell>
        <mxCell id="Kj9JKMHcZySDFW4jfRYG-164" value="" style="pointerEvents=1;shadow=0;dashed=0;html=1;strokeColor=none;fillColor=#4495D1;labelPosition=center;verticalLabelPosition=bottom;verticalAlign=top;align=center;outlineConnect=0;shape=mxgraph.veeam.server_stack;" parent="1" vertex="1">
          <mxGeometry x="240.4" y="1422" width="57.2" height="49.6" as="geometry" />
        </mxCell>
        <mxCell id="Kj9JKMHcZySDFW4jfRYG-165" value="ECS" style="text;html=1;align=center;verticalAlign=middle;resizable=0;points=[];autosize=1;strokeColor=none;fillColor=none;" parent="1" vertex="1">
          <mxGeometry x="247.5" y="1471.6" width="43" height="26" as="geometry" />
        </mxCell>
        <mxCell id="Kj9JKMHcZySDFW4jfRYG-166" value="OSS" style="text;html=1;align=center;verticalAlign=middle;resizable=0;points=[];autosize=1;strokeColor=none;fillColor=none;" parent="1" vertex="1">
          <mxGeometry x="431.65" y="1485" width="43" height="26" as="geometry" />
        </mxCell>
        <mxCell id="Kj9JKMHcZySDFW4jfRYG-167" value="存储服务" style="text;html=1;align=center;verticalAlign=middle;resizable=0;points=[];autosize=1;strokeColor=none;fillColor=none;fontSize=10;" parent="1" vertex="1">
          <mxGeometry x="310.59999999999997" y="1448.6" width="58" height="24" as="geometry" />
        </mxCell>
        <mxCell id="Kj9JKMHcZySDFW4jfRYG-168" value="Owner Cloud+httpd" style="text;html=1;align=center;verticalAlign=middle;resizable=0;points=[];autosize=1;strokeColor=none;fillColor=none;fontSize=10;" parent="1" vertex="1">
          <mxGeometry x="218" y="1398" width="104" height="24" as="geometry" />
        </mxCell>
        <mxCell id="Kj9JKMHcZySDFW4jfRYG-170" value="&lt;font style=&quot;font-size: 24px;&quot;&gt;访问层&lt;/font&gt;" style="rounded=1;whiteSpace=wrap;html=1;fillColor=#fad9d5;strokeColor=#ae4132;opacity=70;" parent="1" vertex="1">
          <mxGeometry x="667" y="1252" width="325" height="84" as="geometry" />
        </mxCell>
        <mxCell id="Kj9JKMHcZySDFW4jfRYG-171" value="&lt;font style=&quot;font-size: 24px;&quot;&gt;管理层&lt;/font&gt;" style="rounded=1;whiteSpace=wrap;html=1;fillColor=#fad7ac;strokeColor=#b46504;opacity=70;" parent="1" vertex="1">
          <mxGeometry x="670" y="1408" width="325" height="84" as="geometry" />
        </mxCell>
        <mxCell id="Kj9JKMHcZySDFW4jfRYG-172" value="&lt;font style=&quot;font-size: 24px;&quot;&gt;存储层&lt;/font&gt;" style="rounded=1;whiteSpace=wrap;html=1;fillColor=#b1ddf0;strokeColor=#10739e;opacity=70;" parent="1" vertex="1">
          <mxGeometry x="670" y="1564" width="325" height="84" as="geometry" />
        </mxCell>
        <mxCell id="Kj9JKMHcZySDFW4jfRYG-174" value="" style="shape=flexArrow;endArrow=classic;html=1;rounded=0;entryX=0.491;entryY=0.083;entryDx=0;entryDy=0;entryPerimeter=0;fillColor=#eeeeee;strokeColor=#36393d;exitX=0.5;exitY=1;exitDx=0;exitDy=0;" parent="1" source="Kj9JKMHcZySDFW4jfRYG-170" edge="1">
          <mxGeometry width="50" height="50" relative="1" as="geometry">
            <mxPoint x="830" y="1338" as="sourcePoint" />
            <mxPoint x="829.575" y="1407.9719999999998" as="targetPoint" />
          </mxGeometry>
        </mxCell>
        <mxCell id="Kj9JKMHcZySDFW4jfRYG-176" value="" style="shape=flexArrow;endArrow=classic;html=1;rounded=0;entryX=0.491;entryY=0.083;entryDx=0;entryDy=0;entryPerimeter=0;fillColor=#eeeeee;strokeColor=#36393d;exitX=0.5;exitY=1;exitDx=0;exitDy=0;" parent="1" edge="1">
          <mxGeometry width="50" height="50" relative="1" as="geometry">
            <mxPoint x="826.42" y="1492" as="sourcePoint" />
            <mxPoint x="825.995" y="1563.9719999999998" as="targetPoint" />
          </mxGeometry>
        </mxCell>
        <mxCell id="Kj9JKMHcZySDFW4jfRYG-177" value="云存储系统架构" style="text;html=1;align=center;verticalAlign=middle;resizable=0;points=[];autosize=1;strokeColor=none;fillColor=none;" parent="1" vertex="1">
          <mxGeometry x="1591" y="2047" width="102" height="26" as="geometry" />
        </mxCell>
        <mxCell id="Kj9JKMHcZySDFW4jfRYG-196" value="" style="group" parent="1" vertex="1" connectable="0">
          <mxGeometry x="1399" y="1642" width="384" height="109" as="geometry" />
        </mxCell>
        <mxCell id="Kj9JKMHcZySDFW4jfRYG-185" value="" style="rounded=0;whiteSpace=wrap;html=1;opacity=50;strokeColor=#69C8FF;" parent="Kj9JKMHcZySDFW4jfRYG-196" vertex="1">
          <mxGeometry width="384" height="109" as="geometry" />
        </mxCell>
        <mxCell id="Kj9JKMHcZySDFW4jfRYG-186" value="网络接入" style="rounded=1;whiteSpace=wrap;html=1;" parent="Kj9JKMHcZySDFW4jfRYG-196" vertex="1">
          <mxGeometry x="17" y="19" width="78" height="29" as="geometry" />
        </mxCell>
        <mxCell id="Kj9JKMHcZySDFW4jfRYG-187" value="身份认证" style="rounded=1;whiteSpace=wrap;html=1;" parent="Kj9JKMHcZySDFW4jfRYG-196" vertex="1">
          <mxGeometry x="148" y="19" width="78" height="29" as="geometry" />
        </mxCell>
        <mxCell id="Kj9JKMHcZySDFW4jfRYG-190" value="访问控制" style="rounded=1;whiteSpace=wrap;html=1;" parent="Kj9JKMHcZySDFW4jfRYG-196" vertex="1">
          <mxGeometry x="276" y="19" width="78" height="29" as="geometry" />
        </mxCell>
        <mxCell id="Kj9JKMHcZySDFW4jfRYG-191" value="API接口、应用软件、Web服务等" style="rounded=1;whiteSpace=wrap;html=1;" parent="Kj9JKMHcZySDFW4jfRYG-196" vertex="1">
          <mxGeometry x="17" y="62" width="342" height="29" as="geometry" />
        </mxCell>
        <mxCell id="Kj9JKMHcZySDFW4jfRYG-197" value="" style="group" parent="1" vertex="1" connectable="0">
          <mxGeometry x="1399" y="1888" width="384" height="124" as="geometry" />
        </mxCell>
        <mxCell id="Kj9JKMHcZySDFW4jfRYG-198" value="" style="rounded=0;whiteSpace=wrap;html=1;opacity=50;strokeColor=#69C8FF;" parent="Kj9JKMHcZySDFW4jfRYG-197" vertex="1">
          <mxGeometry width="384" height="124" as="geometry" />
        </mxCell>
        <mxCell id="Kj9JKMHcZySDFW4jfRYG-199" value="存储虚拟化" style="rounded=1;whiteSpace=wrap;html=1;" parent="Kj9JKMHcZySDFW4jfRYG-197" vertex="1">
          <mxGeometry x="17" y="16.220183486238533" width="84" height="30.86238532110092" as="geometry" />
        </mxCell>
        <mxCell id="Kj9JKMHcZySDFW4jfRYG-200" value="存储集中管理" style="rounded=1;whiteSpace=wrap;html=1;" parent="Kj9JKMHcZySDFW4jfRYG-197" vertex="1">
          <mxGeometry x="137" y="16.220183486238533" width="99" height="30.86238532110092" as="geometry" />
        </mxCell>
        <mxCell id="Kj9JKMHcZySDFW4jfRYG-201" value="状态监控" style="rounded=1;whiteSpace=wrap;html=1;" parent="Kj9JKMHcZySDFW4jfRYG-197" vertex="1">
          <mxGeometry x="276" y="16.220183486238533" width="78" height="30.86238532110092" as="geometry" />
        </mxCell>
        <mxCell id="Kj9JKMHcZySDFW4jfRYG-204" value="节点1" style="pointerEvents=1;shadow=0;dashed=0;html=1;strokeColor=none;fillColor=#4495D1;labelPosition=center;verticalLabelPosition=bottom;verticalAlign=top;align=center;outlineConnect=0;shape=mxgraph.veeam.server_stack;" parent="Kj9JKMHcZySDFW4jfRYG-197" vertex="1">
          <mxGeometry x="41.36" y="60.660550458715555" width="35.28" height="32.5651376146789" as="geometry" />
        </mxCell>
        <mxCell id="Kj9JKMHcZySDFW4jfRYG-211" value="节点2" style="pointerEvents=1;shadow=0;dashed=0;html=1;strokeColor=none;fillColor=#4495D1;labelPosition=center;verticalLabelPosition=bottom;verticalAlign=top;align=center;outlineConnect=0;shape=mxgraph.veeam.server_stack;" parent="Kj9JKMHcZySDFW4jfRYG-197" vertex="1">
          <mxGeometry x="105" y="60.660550458715555" width="35.28" height="32.5651376146789" as="geometry" />
        </mxCell>
        <mxCell id="Kj9JKMHcZySDFW4jfRYG-212" value="节点3" style="pointerEvents=1;shadow=0;dashed=0;html=1;strokeColor=none;fillColor=#4495D1;labelPosition=center;verticalLabelPosition=bottom;verticalAlign=top;align=center;outlineConnect=0;shape=mxgraph.veeam.server_stack;" parent="Kj9JKMHcZySDFW4jfRYG-197" vertex="1">
          <mxGeometry x="169" y="60.660550458715555" width="35.28" height="32.5651376146789" as="geometry" />
        </mxCell>
        <mxCell id="Kj9JKMHcZySDFW4jfRYG-213" value="节点4" style="pointerEvents=1;shadow=0;dashed=0;html=1;strokeColor=none;fillColor=#4495D1;labelPosition=center;verticalLabelPosition=bottom;verticalAlign=top;align=center;outlineConnect=0;shape=mxgraph.veeam.server_stack;" parent="Kj9JKMHcZySDFW4jfRYG-197" vertex="1">
          <mxGeometry x="233" y="60.660550458715555" width="35.28" height="32.5651376146789" as="geometry" />
        </mxCell>
        <mxCell id="Kj9JKMHcZySDFW4jfRYG-214" value="节点5" style="pointerEvents=1;shadow=0;dashed=0;html=1;strokeColor=none;fillColor=#4495D1;labelPosition=center;verticalLabelPosition=bottom;verticalAlign=top;align=center;outlineConnect=0;shape=mxgraph.veeam.server_stack;" parent="Kj9JKMHcZySDFW4jfRYG-197" vertex="1">
          <mxGeometry x="297.3599999999999" y="60.660550458715555" width="35.28" height="32.5651376146789" as="geometry" />
        </mxCell>
        <mxCell id="Kj9JKMHcZySDFW4jfRYG-203" value="" style="group" parent="1" vertex="1" connectable="0">
          <mxGeometry x="1399" y="1765" width="384" height="109" as="geometry" />
        </mxCell>
        <mxCell id="Kj9JKMHcZySDFW4jfRYG-192" value="" style="rounded=0;whiteSpace=wrap;html=1;opacity=50;strokeColor=#69C8FF;" parent="Kj9JKMHcZySDFW4jfRYG-203" vertex="1">
          <mxGeometry width="384" height="109" as="geometry" />
        </mxCell>
        <mxCell id="Kj9JKMHcZySDFW4jfRYG-193" value="集群系统&lt;div&gt;分布式系统&lt;/div&gt;&lt;div&gt;文件系统&lt;/div&gt;&lt;div&gt;网格计算&lt;/div&gt;" style="rounded=1;whiteSpace=wrap;html=1;" parent="Kj9JKMHcZySDFW4jfRYG-203" vertex="1">
          <mxGeometry x="21" y="14" width="78" height="82" as="geometry" />
        </mxCell>
        <mxCell id="Kj9JKMHcZySDFW4jfRYG-194" value="内容分发&lt;div&gt;数据压缩&lt;/div&gt;&lt;div&gt;数据去冗&lt;/div&gt;&lt;div&gt;计费&lt;/div&gt;" style="rounded=1;whiteSpace=wrap;html=1;" parent="Kj9JKMHcZySDFW4jfRYG-203" vertex="1">
          <mxGeometry x="146.1099999999999" y="14" width="78" height="82" as="geometry" />
        </mxCell>
        <mxCell id="Kj9JKMHcZySDFW4jfRYG-195" value="数据加密&lt;div&gt;数据备份&lt;/div&gt;&lt;div&gt;数据容灾&lt;/div&gt;" style="rounded=1;whiteSpace=wrap;html=1;" parent="Kj9JKMHcZySDFW4jfRYG-203" vertex="1">
          <mxGeometry x="272" y="14" width="78" height="81" as="geometry" />
        </mxCell>
        <mxCell id="Kj9JKMHcZySDFW4jfRYG-216" value="" style="group" parent="1" vertex="1" connectable="0">
          <mxGeometry x="1399" y="1572" width="384" height="53" as="geometry" />
        </mxCell>
        <mxCell id="Kj9JKMHcZySDFW4jfRYG-178" value="" style="rounded=0;whiteSpace=wrap;html=1;opacity=50;strokeColor=#69C8FF;" parent="Kj9JKMHcZySDFW4jfRYG-216" vertex="1">
          <mxGeometry width="384" height="53" as="geometry" />
        </mxCell>
        <mxCell id="Kj9JKMHcZySDFW4jfRYG-179" value="" style="pointerEvents=1;shadow=0;dashed=0;html=1;strokeColor=none;fillColor=#4495D1;labelPosition=center;verticalLabelPosition=bottom;verticalAlign=top;align=center;outlineConnect=0;shape=mxgraph.veeam.laptop;" parent="Kj9JKMHcZySDFW4jfRYG-216" vertex="1">
          <mxGeometry x="161.72000000000003" y="12.82258064516129" width="46.76" height="26.927419354838708" as="geometry" />
        </mxCell>
        <mxCell id="Kj9JKMHcZySDFW4jfRYG-180" value="" style="pointerEvents=1;shadow=0;dashed=0;html=1;strokeColor=none;fillColor=#4495D1;labelPosition=center;verticalLabelPosition=bottom;verticalAlign=top;align=center;outlineConnect=0;shape=mxgraph.veeam.2d.workstation;" parent="Kj9JKMHcZySDFW4jfRYG-216" vertex="1">
          <mxGeometry x="286" y="12.181451612903226" width="50" height="26.927419354838708" as="geometry" />
        </mxCell>
        <mxCell id="Kj9JKMHcZySDFW4jfRYG-184" value="" style="sketch=0;points=[[0.015,0.015,0],[0.985,0.015,0],[0.985,0.985,0],[0.015,0.985,0],[0.25,0,0],[0.5,0,0],[0.75,0,0],[1,0.25,0],[1,0.5,0],[1,0.75,0],[0.75,1,0],[0.5,1,0],[0.25,1,0],[0,0.75,0],[0,0.5,0],[0,0.25,0]];verticalLabelPosition=bottom;html=1;verticalAlign=top;aspect=fixed;align=center;pointerEvents=1;shape=mxgraph.cisco19.cell_phone;fillColor=#4f93ce;strokeColor=none;" parent="Kj9JKMHcZySDFW4jfRYG-216" vertex="1">
          <mxGeometry x="55" y="9.830645161290322" width="17.096774193548384" height="34.19354838709677" as="geometry" />
        </mxCell>
        <mxCell id="Kj9JKMHcZySDFW4jfRYG-217" value="访问层" style="text;strokeColor=none;align=center;fillColor=#cce5ff;html=1;verticalAlign=middle;whiteSpace=wrap;rounded=0;" parent="1" vertex="1">
          <mxGeometry x="1804" y="1585.5" width="69" height="30" as="geometry" />
        </mxCell>
        <mxCell id="Kj9JKMHcZySDFW4jfRYG-218" value="数据管理层" style="text;strokeColor=none;align=center;fillColor=#cce5ff;html=1;verticalAlign=middle;whiteSpace=wrap;rounded=0;" parent="1" vertex="1">
          <mxGeometry x="1804" y="1743" width="69" height="30" as="geometry" />
        </mxCell>
        <mxCell id="Kj9JKMHcZySDFW4jfRYG-221" value="存储层" style="text;strokeColor=none;align=center;fillColor=#cce5ff;html=1;verticalAlign=middle;whiteSpace=wrap;rounded=0;" parent="1" vertex="1">
          <mxGeometry x="1804" y="1937" width="69" height="30" as="geometry" />
        </mxCell>
        <mxCell id="Kj9JKMHcZySDFW4jfRYG-233" style="edgeStyle=orthogonalEdgeStyle;rounded=0;orthogonalLoop=1;jettySize=auto;html=1;fontSize=36;" parent="1" source="Kj9JKMHcZySDFW4jfRYG-231" target="Kj9JKMHcZySDFW4jfRYG-56" edge="1">
          <mxGeometry relative="1" as="geometry" />
        </mxCell>
        <mxCell id="Kj9JKMHcZySDFW4jfRYG-231" value="Actor" style="shape=umlActor;verticalLabelPosition=bottom;verticalAlign=top;html=1;outlineConnect=0;fillColor=#a20025;strokeColor=#6F0000;fontColor=#ffffff;fontSize=36;" parent="1" vertex="1">
          <mxGeometry x="3285" y="1343.5" width="86.5" height="174" as="geometry" />
        </mxCell>
        <mxCell id="Kj9JKMHcZySDFW4jfRYG-232" value="&lt;div style=&quot;font-size: 36px;&quot;&gt;&lt;font style=&quot;font-size: 36px;&quot;&gt;Attacker&lt;/font&gt;&lt;/div&gt;" style="text;html=1;align=center;verticalAlign=middle;resizable=0;points=[];autosize=1;strokeColor=none;fillColor=none;fontSize=36;" parent="1" vertex="1">
          <mxGeometry x="3253.25" y="1530.5" width="150" height="55" as="geometry" />
        </mxCell>
        <mxCell id="Kj9JKMHcZySDFW4jfRYG-238" value="" style="rounded=0;whiteSpace=wrap;html=1;fillColor=#ebebeb;opacity=30;strokeColor=none;" parent="1" vertex="1">
          <mxGeometry x="1675" y="2179" width="585" height="479" as="geometry" />
        </mxCell>
        <mxCell id="Kj9JKMHcZySDFW4jfRYG-239" value="云存储系统架构" style="text;html=1;align=center;verticalAlign=middle;resizable=0;points=[];autosize=1;strokeColor=none;fillColor=none;" parent="1" vertex="1">
          <mxGeometry x="1913.31" y="2672" width="102" height="26" as="geometry" />
        </mxCell>
        <mxCell id="Kj9JKMHcZySDFW4jfRYG-240" value="" style="group" parent="1" vertex="1" connectable="0">
          <mxGeometry x="1721.31" y="2267" width="384" height="109" as="geometry" />
        </mxCell>
        <mxCell id="Kj9JKMHcZySDFW4jfRYG-241" value="" style="rounded=0;whiteSpace=wrap;html=1;opacity=50;strokeColor=#69C8FF;" parent="Kj9JKMHcZySDFW4jfRYG-240" vertex="1">
          <mxGeometry width="384" height="109" as="geometry" />
        </mxCell>
        <mxCell id="Kj9JKMHcZySDFW4jfRYG-242" value="Network acess" style="rounded=1;whiteSpace=wrap;html=1;" parent="Kj9JKMHcZySDFW4jfRYG-240" vertex="1">
          <mxGeometry x="17" y="19" width="78" height="29" as="geometry" />
        </mxCell>
        <mxCell id="Kj9JKMHcZySDFW4jfRYG-243" value="Identity authentication" style="rounded=1;whiteSpace=wrap;html=1;" parent="Kj9JKMHcZySDFW4jfRYG-240" vertex="1">
          <mxGeometry x="148" y="19" width="92" height="29" as="geometry" />
        </mxCell>
        <mxCell id="Kj9JKMHcZySDFW4jfRYG-244" value="Access control" style="rounded=1;whiteSpace=wrap;html=1;" parent="Kj9JKMHcZySDFW4jfRYG-240" vertex="1">
          <mxGeometry x="276" y="19" width="78" height="29" as="geometry" />
        </mxCell>
        <mxCell id="Kj9JKMHcZySDFW4jfRYG-245" value="API interfaces, application software, Web services, etc" style="rounded=1;whiteSpace=wrap;html=1;" parent="Kj9JKMHcZySDFW4jfRYG-240" vertex="1">
          <mxGeometry x="17" y="62" width="342" height="29" as="geometry" />
        </mxCell>
        <mxCell id="Kj9JKMHcZySDFW4jfRYG-246" value="" style="group" parent="1" vertex="1" connectable="0">
          <mxGeometry x="1721.31" y="2513" width="384" height="124" as="geometry" />
        </mxCell>
        <mxCell id="Kj9JKMHcZySDFW4jfRYG-247" value="" style="rounded=0;whiteSpace=wrap;html=1;opacity=50;strokeColor=#69C8FF;" parent="Kj9JKMHcZySDFW4jfRYG-246" vertex="1">
          <mxGeometry width="384" height="124" as="geometry" />
        </mxCell>
        <mxCell id="Kj9JKMHcZySDFW4jfRYG-248" value="Storage virtualization" style="rounded=1;whiteSpace=wrap;html=1;" parent="Kj9JKMHcZySDFW4jfRYG-246" vertex="1">
          <mxGeometry x="24" y="16.22" width="87" height="30.86" as="geometry" />
        </mxCell>
        <mxCell id="Kj9JKMHcZySDFW4jfRYG-249" value="Centralized storage management" style="rounded=1;whiteSpace=wrap;html=1;" parent="Kj9JKMHcZySDFW4jfRYG-246" vertex="1">
          <mxGeometry x="139" y="16.22" width="114" height="30.86" as="geometry" />
        </mxCell>
        <mxCell id="Kj9JKMHcZySDFW4jfRYG-251" value="Node1" style="pointerEvents=1;shadow=0;dashed=0;html=1;strokeColor=none;fillColor=#4495D1;labelPosition=center;verticalLabelPosition=bottom;verticalAlign=top;align=center;outlineConnect=0;shape=mxgraph.veeam.server_stack;" parent="Kj9JKMHcZySDFW4jfRYG-246" vertex="1">
          <mxGeometry x="41.36" y="60.660550458715555" width="35.28" height="32.5651376146789" as="geometry" />
        </mxCell>
        <mxCell id="Kj9JKMHcZySDFW4jfRYG-250" value="Condition monitoring" style="rounded=1;whiteSpace=wrap;html=1;" parent="Kj9JKMHcZySDFW4jfRYG-246" vertex="1">
          <mxGeometry x="281" y="16.220183486238533" width="78" height="30.86238532110092" as="geometry" />
        </mxCell>
        <mxCell id="Kj9JKMHcZySDFW4jfRYG-252" value="Node2" style="pointerEvents=1;shadow=0;dashed=0;html=1;strokeColor=none;fillColor=#4495D1;labelPosition=center;verticalLabelPosition=bottom;verticalAlign=top;align=center;outlineConnect=0;shape=mxgraph.veeam.server_stack;" parent="Kj9JKMHcZySDFW4jfRYG-246" vertex="1">
          <mxGeometry x="105" y="60.660550458715555" width="35.28" height="32.5651376146789" as="geometry" />
        </mxCell>
        <mxCell id="Kj9JKMHcZySDFW4jfRYG-253" value="Node 3" style="pointerEvents=1;shadow=0;dashed=0;html=1;strokeColor=none;fillColor=#4495D1;labelPosition=center;verticalLabelPosition=bottom;verticalAlign=top;align=center;outlineConnect=0;shape=mxgraph.veeam.server_stack;" parent="Kj9JKMHcZySDFW4jfRYG-246" vertex="1">
          <mxGeometry x="169" y="60.660550458715555" width="35.28" height="32.5651376146789" as="geometry" />
        </mxCell>
        <mxCell id="Kj9JKMHcZySDFW4jfRYG-254" value="Node4" style="pointerEvents=1;shadow=0;dashed=0;html=1;strokeColor=none;fillColor=#4495D1;labelPosition=center;verticalLabelPosition=bottom;verticalAlign=top;align=center;outlineConnect=0;shape=mxgraph.veeam.server_stack;" parent="Kj9JKMHcZySDFW4jfRYG-246" vertex="1">
          <mxGeometry x="233" y="60.660550458715555" width="35.28" height="32.5651376146789" as="geometry" />
        </mxCell>
        <mxCell id="Kj9JKMHcZySDFW4jfRYG-255" value="Node5" style="pointerEvents=1;shadow=0;dashed=0;html=1;strokeColor=none;fillColor=#4495D1;labelPosition=center;verticalLabelPosition=bottom;verticalAlign=top;align=center;outlineConnect=0;shape=mxgraph.veeam.server_stack;" parent="Kj9JKMHcZySDFW4jfRYG-246" vertex="1">
          <mxGeometry x="297.3599999999999" y="60.660550458715555" width="35.28" height="32.5651376146789" as="geometry" />
        </mxCell>
        <mxCell id="Kj9JKMHcZySDFW4jfRYG-256" value="" style="group" parent="1" vertex="1" connectable="0">
          <mxGeometry x="1721.31" y="2390" width="384" height="109" as="geometry" />
        </mxCell>
        <mxCell id="Kj9JKMHcZySDFW4jfRYG-257" value="" style="rounded=0;whiteSpace=wrap;html=1;opacity=50;strokeColor=#69C8FF;" parent="Kj9JKMHcZySDFW4jfRYG-256" vertex="1">
          <mxGeometry width="384" height="109" as="geometry" />
        </mxCell>
        <mxCell id="Kj9JKMHcZySDFW4jfRYG-258" value="&lt;div&gt;Cluster system&lt;/div&gt;&lt;div&gt;Distributed system&lt;/div&gt;&lt;div&gt;File system&lt;/div&gt;&lt;div&gt;Grid computing&lt;/div&gt;" style="rounded=1;whiteSpace=wrap;html=1;" parent="Kj9JKMHcZySDFW4jfRYG-256" vertex="1">
          <mxGeometry x="21" y="14" width="94" height="82" as="geometry" />
        </mxCell>
        <mxCell id="Kj9JKMHcZySDFW4jfRYG-259" value="&lt;div&gt;Content distribution&lt;/div&gt;&lt;div&gt;Data compression&lt;/div&gt;&lt;div&gt;Data de-redundancy&lt;/div&gt;&lt;div&gt;charging&lt;/div&gt;" style="rounded=1;whiteSpace=wrap;html=1;" parent="Kj9JKMHcZySDFW4jfRYG-256" vertex="1">
          <mxGeometry x="137" y="14" width="114" height="82" as="geometry" />
        </mxCell>
        <mxCell id="Kj9JKMHcZySDFW4jfRYG-260" value="&lt;div&gt;Data encryption&lt;/div&gt;&lt;div&gt;Data backup&lt;/div&gt;&lt;div&gt;Data disaster recovery&lt;/div&gt;" style="rounded=1;whiteSpace=wrap;html=1;" parent="Kj9JKMHcZySDFW4jfRYG-256" vertex="1">
          <mxGeometry x="272" y="14" width="92" height="81" as="geometry" />
        </mxCell>
        <mxCell id="Kj9JKMHcZySDFW4jfRYG-261" value="" style="group" parent="1" vertex="1" connectable="0">
          <mxGeometry x="1721.31" y="2197" width="384" height="53" as="geometry" />
        </mxCell>
        <mxCell id="Kj9JKMHcZySDFW4jfRYG-262" value="" style="rounded=0;whiteSpace=wrap;html=1;opacity=50;strokeColor=#69C8FF;" parent="Kj9JKMHcZySDFW4jfRYG-261" vertex="1">
          <mxGeometry width="384" height="53" as="geometry" />
        </mxCell>
        <mxCell id="Kj9JKMHcZySDFW4jfRYG-263" value="" style="pointerEvents=1;shadow=0;dashed=0;html=1;strokeColor=none;fillColor=#4495D1;labelPosition=center;verticalLabelPosition=bottom;verticalAlign=top;align=center;outlineConnect=0;shape=mxgraph.veeam.laptop;" parent="Kj9JKMHcZySDFW4jfRYG-261" vertex="1">
          <mxGeometry x="161.72000000000003" y="12.82258064516129" width="46.76" height="26.927419354838708" as="geometry" />
        </mxCell>
        <mxCell id="Kj9JKMHcZySDFW4jfRYG-264" value="" style="pointerEvents=1;shadow=0;dashed=0;html=1;strokeColor=none;fillColor=#4495D1;labelPosition=center;verticalLabelPosition=bottom;verticalAlign=top;align=center;outlineConnect=0;shape=mxgraph.veeam.2d.workstation;" parent="Kj9JKMHcZySDFW4jfRYG-261" vertex="1">
          <mxGeometry x="286" y="12.181451612903226" width="50" height="26.927419354838708" as="geometry" />
        </mxCell>
        <mxCell id="Kj9JKMHcZySDFW4jfRYG-265" value="" style="sketch=0;points=[[0.015,0.015,0],[0.985,0.015,0],[0.985,0.985,0],[0.015,0.985,0],[0.25,0,0],[0.5,0,0],[0.75,0,0],[1,0.25,0],[1,0.5,0],[1,0.75,0],[0.75,1,0],[0.5,1,0],[0.25,1,0],[0,0.75,0],[0,0.5,0],[0,0.25,0]];verticalLabelPosition=bottom;html=1;verticalAlign=top;aspect=fixed;align=center;pointerEvents=1;shape=mxgraph.cisco19.cell_phone;fillColor=#4f93ce;strokeColor=none;" parent="Kj9JKMHcZySDFW4jfRYG-261" vertex="1">
          <mxGeometry x="55" y="9.830645161290322" width="17.096774193548384" height="34.19354838709677" as="geometry" />
        </mxCell>
        <mxCell id="Kj9JKMHcZySDFW4jfRYG-266" value="Access layer" style="text;strokeColor=none;align=center;fillColor=#cce5ff;html=1;verticalAlign=middle;whiteSpace=wrap;rounded=0;" parent="1" vertex="1">
          <mxGeometry x="2126.31" y="2210.5" width="92.69" height="30" as="geometry" />
        </mxCell>
        <mxCell id="Kj9JKMHcZySDFW4jfRYG-267" value="Data management layer" style="text;strokeColor=none;align=center;fillColor=#cce5ff;html=1;verticalAlign=middle;whiteSpace=wrap;rounded=0;" parent="1" vertex="1">
          <mxGeometry x="2126.31" y="2361" width="104.69" height="40" as="geometry" />
        </mxCell>
        <mxCell id="Kj9JKMHcZySDFW4jfRYG-268" value="Storage layer" style="text;strokeColor=none;align=center;fillColor=#cce5ff;html=1;verticalAlign=middle;whiteSpace=wrap;rounded=0;" parent="1" vertex="1">
          <mxGeometry x="2126.31" y="2562" width="85.69" height="30" as="geometry" />
        </mxCell>
      </root>
    </mxGraphModel>
  </diagram>
</mxfile>
